<svg width="308" height="56" viewBox="0 0 308 56" fill="none" xmlns="http://www.w3.org/2000/svg">
<path d="M19.9119 8.10468C19.9005 3.64883 23.5173 0.0113935 27.9871 2.64865e-05C32.4569 -0.0113405 36.1192 3.63746 36.1079 8.10468C36.0965 12.5833 32.4911 16.1866 28.0213 16.198C23.5514 16.198 19.9233 12.5833 19.9119 8.10468Z" fill="#10009B"/>
<path d="M38.2237 31.3502C39.1677 31.1228 39.9866 30.6454 40.7373 30.0316C42.0566 28.9517 43.0348 27.6104 43.8537 26.1441C43.8878 26.0873 43.8992 26.0077 43.9901 25.9509C44.0243 26.6329 43.9219 27.2808 43.7285 27.906C43.3077 29.2359 42.5002 30.3158 41.5107 31.2706C40.4643 32.2823 39.2701 33.1007 37.9849 33.76C37.9849 33.7713 37.9508 33.7827 37.9621 33.8054C37.9735 33.8282 38.0076 33.8054 38.0304 33.8054C38.7469 33.6236 39.3611 33.2598 39.9639 32.862C40.9079 32.2368 41.7609 31.4979 42.5684 30.7136C42.6253 30.6568 42.6708 30.5886 42.739 30.4863C42.7959 30.6227 42.7732 30.6909 42.7504 30.7705C42.5229 31.7253 42.0339 32.5551 41.3856 33.2826C40.3392 34.4534 39.0654 35.3059 37.6664 35.9765C37.6323 35.9879 37.6096 36.0106 37.5754 36.022C37.5754 36.1129 37.6209 36.0675 37.6551 36.0561C38.3716 35.8742 39.0085 35.5332 39.6341 35.1467C40.1572 34.8285 40.6463 34.4761 41.124 34.101C41.1581 34.0782 41.1922 34.0441 41.2719 33.9987C41.1013 34.4875 40.8738 34.8967 40.6008 35.2831C39.7819 36.4085 38.6787 37.1928 37.4503 37.8066C37.1091 37.9771 36.7565 38.1249 36.3926 38.2727C36.9044 38.3522 37.4048 38.159 39.1336 37.2269C39.1564 37.3178 39.0881 37.3633 39.0426 37.4088C38.5195 38.0681 37.8939 38.6364 37.1774 39.0797C36.04 39.7845 34.8344 40.3528 33.5492 40.7166C32.8099 40.9325 32.0706 40.9212 31.32 40.7166C30.1485 40.3869 29.3978 39.6594 29.1021 38.4659C28.9429 37.818 28.886 37.1587 28.977 36.4994C28.977 36.4653 28.977 36.4198 29.0339 36.3857C29.1704 36.8518 29.3637 37.2724 29.6481 37.6588C30.0916 38.2613 30.6262 38.7501 31.3768 38.9319C31.5816 38.9774 31.7977 38.9888 32.0024 38.9547C32.355 38.9092 32.5597 38.6819 32.5824 38.3295C32.6166 37.943 32.5028 37.5679 32.3891 37.2042C32.2071 36.6472 31.991 36.1129 31.8432 35.556C31.3996 33.8736 31.991 32.3618 33.4468 31.3956C33.9928 31.0319 34.5728 30.7591 35.1756 30.4976C37.7119 29.4178 39.6454 27.6218 41.2491 25.428C42.3637 23.9048 43.2736 22.2793 43.7854 20.4379C43.8423 20.2333 43.8878 20.0287 43.9333 19.8241C43.9788 19.6194 44.0015 19.4148 44.047 19.1875C44.1153 19.2216 44.1266 19.3012 44.1494 19.358C44.5588 20.472 44.6612 21.6314 44.5361 22.8022C44.1835 25.8827 42.5571 28.2015 40.1686 30.0657C39.5431 30.5545 38.872 30.9523 38.1669 31.3047C38.1669 31.3161 38.1327 31.3274 38.1441 31.3502C38.1555 31.3615 38.1896 31.3502 38.2124 31.3502H38.2237Z" fill="#F0DA00"/>
<path d="M18.0355 33.771C16.3522 32.8957 14.8281 31.7931 13.6225 30.3154C12.8264 29.3379 12.2691 28.258 12.0757 26.9963C12.0302 26.6553 11.9961 26.3142 12.0188 25.9619C12.0985 26.0073 12.1098 26.0755 12.1439 26.1324C12.9628 27.5987 13.9296 28.94 15.2376 30.0085C15.9882 30.6337 16.8185 31.1225 17.7852 31.3498C17.8307 31.3612 17.8649 31.3498 17.9104 31.3726C17.8762 31.3726 17.8421 31.3498 17.8194 31.3157C15.7721 30.2927 14.1002 28.8377 12.8832 26.894C11.9733 25.4276 11.416 23.8476 11.4047 22.1085C11.4047 21.1764 11.507 20.2556 11.8369 19.3804C11.8596 19.3236 11.8824 19.2667 11.9165 19.1758C11.9847 19.5168 12.0302 19.8237 12.0985 20.1192C12.4852 21.722 13.1903 23.1883 14.1002 24.5524C15.1125 26.0755 16.2612 27.4737 17.7056 28.599C18.7406 29.4061 19.878 30.0312 21.0495 30.6223C21.675 30.9406 22.3006 31.2589 22.8579 31.6908C23.563 32.2364 23.8815 32.9753 23.9611 33.8392C24.0293 34.6349 23.8587 35.3851 23.4948 36.0785C22.8237 37.3629 22.6986 38.727 22.7327 40.1365C22.7327 40.432 22.8124 40.7162 22.9147 41.0459C22.7669 40.9094 22.6418 40.8071 22.528 40.7048C21.857 40.1365 21.0836 39.7841 20.2192 39.6363C19.5595 39.5227 18.9112 39.3408 18.3312 38.9771C17.6829 38.5679 17.2279 37.9881 16.8526 37.2606C17.3189 37.5448 17.7284 37.7949 18.1719 37.9881C18.6155 38.17 19.0705 38.3291 19.605 38.3178C17.4895 37.4198 15.6356 36.2831 14.7485 34.0438C15.0442 34.2598 15.3399 34.4871 15.6356 34.7031C16.4773 35.2828 17.353 35.8057 18.3539 36.0898C18.3994 36.1012 18.4449 36.1126 18.4904 36.1126C18.5132 36.1126 18.5245 36.1239 18.5473 36.1126C18.5245 36.1126 18.5132 36.0785 18.4904 36.0671C17.2166 35.476 16.0337 34.7372 15.0215 33.7369C14.1684 32.8957 13.5088 31.9409 13.2244 30.7474C13.2131 30.6792 13.1903 30.611 13.2017 30.52C13.4292 30.736 13.6453 30.9406 13.8614 31.1338C14.794 31.9977 15.7835 32.7934 16.9095 33.3959C17.2393 33.5664 17.5805 33.7255 17.9558 33.8051C17.9786 33.8051 18.0013 33.8278 18.0241 33.8051C18.0355 33.7937 18.0127 33.7824 18.0013 33.7596L18.0355 33.771Z" fill="#F0DA00"/>
<path d="M36.9839 3.80762C37.0066 4.21683 37.0294 4.58057 37.1431 4.94432C37.3023 5.44446 37.6094 5.7741 38.1212 5.96734C40.4869 6.8426 42.7048 7.9793 44.6952 9.54794C46.151 10.696 47.3338 12.0941 48.0163 13.8333C48.9148 16.1181 48.7783 18.3801 47.7774 20.5966C47.0154 22.3017 45.878 23.7453 44.5587 25.0525C44.5473 25.0639 44.5246 25.0752 44.5018 25.098C44.6042 24.5978 44.7179 24.109 44.7975 23.6089C44.9909 22.4949 45.1046 21.3696 44.9795 20.2329C44.934 19.7782 44.8203 19.3349 44.6042 18.9257C44.263 18.2891 44.2402 17.6299 44.4677 16.9478C44.6383 16.425 44.843 15.9134 44.934 15.3565C45.0705 14.4812 44.9113 13.6628 44.5814 12.8557C43.8194 10.9688 42.5342 9.50247 40.8737 8.35441C39.9638 7.72922 38.9856 7.20634 38.0075 6.69483C37.5526 6.45612 37.1431 6.16058 36.8474 5.74C36.4266 5.13755 36.4721 4.37597 36.9725 3.80762H36.9839Z" fill="#F0DA00"/>
<path d="M11.45 25.0418C9.91457 23.4959 8.58386 21.8022 7.89007 19.7107C6.93469 16.778 7.42375 14.0613 9.30039 11.5947C10.324 10.2534 11.632 9.219 13.0537 8.33238C14.5891 7.37755 16.2155 6.5705 17.9216 5.96805C18.5471 5.74071 18.8087 5.26329 18.9452 4.67221C19.0021 4.3994 19.0134 4.1266 19.0362 3.83105C19.457 4.20617 19.5707 4.94502 19.3091 5.502C19.0362 6.04762 18.5699 6.38862 18.0581 6.6728C17.3643 7.04791 16.6705 7.40029 15.9994 7.8095C14.5322 8.69612 13.2243 9.76462 12.2803 11.231C11.8936 11.822 11.5865 12.4472 11.3363 13.1065C10.9382 14.175 10.9382 15.2549 11.3363 16.3234C11.45 16.6075 11.541 16.9031 11.6206 17.1986C11.7685 17.767 11.7116 18.324 11.4386 18.8468C11.1657 19.3811 11.0406 19.9494 11.0064 20.5405C10.9496 21.393 11.0064 22.2342 11.1429 23.0753C11.2339 23.7005 11.3704 24.3257 11.4955 24.9395C11.5069 24.985 11.5296 25.0305 11.45 25.0305V25.0418Z" fill="#F0DA00"/>
<path d="M14.191 33.6803C13.3835 33.487 12.5987 33.2029 11.8367 32.8619C9.22073 31.6797 7.10524 29.8723 5.43333 27.5535C4.69405 26.5418 4.2391 25.3938 4.12537 24.132C4.0685 23.5637 4.07987 22.984 4.20498 22.4156C4.39833 21.5404 4.30734 20.6765 4.12537 19.8239C4.03438 19.392 3.92064 18.9601 3.79553 18.5054C3.98888 18.6418 4.11399 18.7895 4.2391 18.9373C4.80778 19.6648 5.16036 20.4832 5.38783 21.3812C5.59256 22.1769 5.77454 22.9726 6.093 23.7228C7.00288 25.8371 8.49282 27.4967 10.2785 28.9062C10.6879 29.2244 11.1201 29.52 11.5637 29.7814C11.8253 29.9292 12.0641 30.0997 12.2916 30.3043C12.5646 30.543 12.7693 30.8158 12.8716 31.1568C13.156 32.0889 13.6451 32.896 14.2706 33.6348C14.2706 33.7144 14.2365 33.703 14.1796 33.6803H14.191Z" fill="#F0DA00"/>
<path d="M41.7379 33.6345C42.3521 32.9184 42.8412 32.1227 43.1141 31.2133C43.2847 30.6336 43.7055 30.2471 44.1946 29.9516C45.4571 29.2014 46.5717 28.2579 47.5953 27.2121C48.7782 25.9959 49.6312 24.5636 50.1885 22.9723C50.4501 22.222 50.5979 21.4264 50.8368 20.6761C51.0756 19.9259 51.4623 19.2553 52.0083 18.6869C52.0538 18.6414 52.0879 18.5846 52.1675 18.5732C52.213 18.6642 52.1447 18.7437 52.1334 18.8119C51.8945 19.6872 51.7012 20.5738 51.6898 21.4832C51.6898 21.9606 51.8149 22.4153 51.8718 22.8813C52.0083 24.2567 51.7239 25.5412 51.0756 26.7461C50.3932 28.0192 49.4151 29.065 48.3687 30.0425C46.5262 31.7703 44.3993 32.9866 41.9654 33.6572C41.9199 33.6686 41.8744 33.68 41.8289 33.68C41.7834 33.7027 41.7379 33.7141 41.7379 33.6345Z" fill="#F0DA00"/>
<path d="M50.0521 14.0949C49.9952 15.0952 50.0293 16.05 50.143 17.0048C50.2227 17.7096 50.3364 18.4143 50.4388 19.1077C50.6435 20.5058 50.416 21.8358 49.8473 23.1202C48.5394 26.1325 46.3443 28.3263 43.5236 29.9177C43.5009 29.9291 43.4781 29.9404 43.444 29.9518C43.444 29.9291 43.4213 29.9063 43.4326 29.895C44.0013 28.5991 44.3653 27.2465 44.5245 25.837C44.5586 25.5187 44.6951 25.2459 44.8998 25.0072C45.332 24.4843 45.8552 24.0296 46.3101 23.5181C47.2996 22.3814 48.0958 21.1424 48.4939 19.676C48.7327 18.7894 48.8123 17.8914 48.8465 16.9821C48.8692 16.2773 49.0171 15.5839 49.3469 14.9588C49.5175 14.6291 49.7336 14.3336 50.0634 14.0835L50.0521 14.0949Z" fill="#F0DA00"/>
<path d="M12.6103 29.9858C11.7687 29.5312 11.0294 29.031 10.3242 28.474C8.2315 26.8486 6.73019 24.7911 5.84305 22.2904C5.44497 21.1651 5.42222 20.0056 5.59283 18.8348C5.79755 17.4822 6.00228 16.1409 5.97953 14.7655C5.97953 14.5495 5.97953 14.3449 5.97953 14.1289C6.09327 14.163 6.17288 14.2653 6.2525 14.3562C6.79843 14.9814 7.04865 15.7317 7.12826 16.5387C7.21925 17.3458 7.20788 18.1528 7.35573 18.9599C7.6287 20.4717 8.29974 21.7902 9.25512 22.9951C9.69869 23.5635 10.1878 24.0864 10.7109 24.5752C11.2114 25.0412 11.4957 25.5868 11.5526 26.2688C11.6549 27.4851 12.053 28.6332 12.508 29.7699L12.599 29.9858H12.6103Z" fill="#F0DA00"/>
<path d="M7.91311 38.8522C7.1852 38.4884 6.67339 37.9428 6.54828 37.1017C6.52553 36.9198 6.52553 36.7379 6.54828 36.5106C6.88948 36.9425 7.20794 37.3404 7.83349 37.3176C7.65151 37.1812 7.48091 37.0676 7.33305 36.9425C6.51416 36.2491 6.51416 35.2375 6.83262 34.4191C6.87811 34.3054 6.94635 34.3395 7.02597 34.3736C7.66289 34.6464 8.04959 35.1238 8.19745 35.7945C8.29981 36.2264 8.28843 36.6583 8.22019 37.1017C8.61827 36.9653 8.70926 36.5901 8.52728 35.8854C8.76612 36.0104 8.92535 36.1696 9.05046 36.3742C9.32343 36.7947 9.3803 37.2608 9.35755 37.7496C9.3348 38.0906 9.26656 38.4316 9.17557 38.784C9.39167 38.784 9.48266 38.6476 9.5509 38.4998C9.65326 38.2725 9.64189 38.0224 9.63052 37.7723C9.63052 37.6927 9.63052 37.6132 9.63052 37.4995C10.0968 37.8973 10.3243 38.4089 10.438 38.9658C10.5518 39.5228 10.5177 40.0912 10.4608 40.6482C10.9385 40.3071 10.8361 39.7956 10.8702 39.2955C11.3138 39.5569 11.564 39.9548 11.7233 40.4208C11.8825 40.8755 11.9166 41.3529 11.928 41.8303C12.2351 41.5234 12.1441 41.1369 12.1668 40.7391C12.5308 40.9323 12.7696 41.2165 12.9289 41.5689C13.0653 41.8872 13.1222 42.2282 13.1222 42.5692C13.1222 43.0921 13.0312 43.6149 13.2473 44.1492C12.3943 43.8195 11.5299 43.8195 10.6769 43.7286C10.0627 43.6718 9.47129 43.5354 8.98222 43.1375C8.74338 42.9443 8.5614 42.7056 8.49316 42.3532C9.23244 42.6601 9.9376 42.8647 10.6996 42.5805C10.2219 42.4214 9.74425 42.2736 9.28931 42.0918C8.69788 41.8531 8.11783 41.5689 7.61739 41.1483C7.37855 40.9437 7.16245 40.7164 7.03734 40.4208C6.99185 40.3299 6.94635 40.2389 6.9691 40.1139C7.65151 40.5459 8.31118 40.9551 9.14145 40.8982L9.1642 40.8414C9.09596 40.8187 9.03909 40.7959 8.97085 40.7732C8.11783 40.4776 7.34443 40.0684 6.77575 39.341C6.45729 38.9317 6.26394 38.4657 6.25256 37.8746C6.69613 38.4202 7.21932 38.7726 7.86761 38.8976C7.89036 38.8976 7.92448 38.909 7.94723 38.8976C7.93585 38.8976 7.92448 38.8749 7.90173 38.8635L7.91311 38.8522Z" fill="#F0DA00"/>
<path d="M48.1754 38.8865C48.8009 38.7501 49.3127 38.4091 49.7335 37.8862C49.7677 38.0453 49.7335 38.1704 49.7108 38.2954C49.5288 39.0911 49.0397 39.6594 48.3801 40.1141C47.9138 40.4324 47.3906 40.6484 46.8447 40.8302C47.0607 40.9439 47.4816 40.8871 47.982 40.6825C48.346 40.5347 48.6872 40.3301 49.0284 40.1027C49.0625 40.2391 49.0056 40.3301 48.9601 40.421C48.7782 40.8075 48.4824 41.0803 48.1412 41.319C47.3451 41.8874 46.4238 42.2056 45.4912 42.4784L45.2296 42.558C46.0371 42.8649 46.7537 42.6376 47.4702 42.3534C47.4816 42.5466 47.3906 42.6831 47.2996 42.8081C46.947 43.2969 46.4238 43.5015 45.8552 43.6265C45.2637 43.7629 44.6496 43.7402 44.0468 43.8311C43.6259 43.888 43.1937 43.9448 42.7957 44.1153C42.7843 44.1153 42.7615 44.1153 42.7274 44.1153C42.9094 43.6833 42.8753 43.24 42.8525 42.7854C42.8184 42.092 42.9321 41.4327 43.4894 40.9325C43.5804 40.853 43.6714 40.7734 43.8079 40.7279C43.842 41.103 43.7397 41.5009 44.0695 41.8533C44.0695 40.8302 44.206 39.9095 45.1045 39.2616C45.1614 39.7617 45.0363 40.296 45.5481 40.6825C45.423 39.4889 45.4116 38.375 46.3442 37.4656C46.4011 37.9544 46.1964 38.5 46.7992 38.7955C46.5603 37.7043 46.367 36.6472 47.4361 35.8742C47.2655 36.3516 47.2655 36.7836 47.7659 37.1246C47.7545 36.9996 47.7432 36.9086 47.7318 36.8177C47.6749 35.9993 47.7887 35.249 48.4369 34.6693C48.5848 34.5443 48.7554 34.4534 48.926 34.3624C49.0625 34.2942 49.1307 34.317 49.199 34.4761C49.6198 35.5901 49.3013 36.5676 48.3005 37.2042C48.2663 37.2269 48.2209 37.2269 48.2095 37.2837C48.5962 37.3519 48.8464 37.2042 49.4265 36.5449C49.6312 37.2269 49.2104 38.3068 48.0957 38.841C48.0844 38.8524 48.073 38.8637 48.0616 38.8865C48.0957 38.8978 48.1412 38.9092 48.1754 38.8865Z" fill="#F0DA00"/>
<path d="M16.1133 36.4314C14.339 36.4996 12.7126 36.1586 11.1999 35.3401C9.9147 34.6468 8.68635 33.8511 7.56037 32.9076C6.63911 32.1347 5.9112 31.2253 5.45626 30.1C5.12642 29.2815 4.73972 28.4745 4.26203 27.7356C4.05731 27.4174 3.84121 27.1218 3.5 26.8831C3.63648 26.8604 3.73885 26.9172 3.82983 26.9627C4.35302 27.2127 4.79659 27.5765 5.20604 27.9743C5.46763 28.2358 5.71785 28.52 5.95669 28.8155C6.96894 30.0772 8.20866 31.0662 9.55074 31.9528C10.5289 32.6007 11.5639 33.1463 12.6785 33.5442C12.9401 33.6351 13.1903 33.7601 13.4405 33.8965C13.8955 34.1352 14.2822 34.4535 14.5779 34.8741C14.9873 35.4538 15.4536 35.9881 16.1019 36.42L16.1133 36.4314Z" fill="#F0DA00"/>
<path d="M39.9068 36.42C40.4527 36.0676 40.8963 35.647 41.2375 35.1355C41.7493 34.3512 42.4658 33.8624 43.3188 33.5555C45.4457 32.7825 47.2768 31.5435 48.9374 30.0317C49.3809 29.6225 49.779 29.1792 50.1544 28.7018C50.6434 28.0994 51.1893 27.5424 51.8604 27.1332C52.0424 27.0195 52.2357 26.9172 52.4746 26.8604C51.5192 27.7924 51.0301 28.9746 50.5297 30.134C50.052 31.2594 49.3127 32.1801 48.3687 32.9531C47.0835 33.9988 45.7073 34.9195 44.206 35.6129C42.8866 36.2267 41.3626 36.4882 39.8954 36.4086L39.9068 36.42Z" fill="#F0DA00"/>
<path d="M18.9 39.6143C18.4337 39.7734 17.956 39.7962 17.4783 39.7621C16.2159 39.6711 15.0558 39.2164 13.8843 38.7845C13.1336 38.5003 12.383 38.2162 11.6892 37.7956C10.9726 37.3636 10.4267 36.7384 9.89215 36.1019C9.35759 35.4767 8.83441 34.8515 8.25436 34.2718C8.24298 34.2718 8.23161 34.2491 8.20886 34.2036C8.68655 34.4764 9.1415 34.7379 9.59644 34.9879C11.0409 35.7836 12.5763 36.3292 14.1914 36.6475C14.6918 36.7498 15.2036 36.8066 15.7041 36.8749C15.9315 36.909 16.1249 36.9885 16.2614 37.1704C16.432 37.3864 16.6139 37.6023 16.7732 37.8297C17.285 38.5913 18.0129 39.1141 18.809 39.5347C18.8432 39.5461 18.8773 39.5575 18.8887 39.6143H18.9Z" fill="#F0DA00"/>
<path d="M47.8115 34.2371C47.0609 34.976 46.4012 35.7831 45.7302 36.5787C45.0705 37.3517 44.2744 37.9314 43.3417 38.3179C42.1361 38.8067 40.9192 39.3068 39.6453 39.6137C38.9288 39.7842 38.1895 39.8638 37.4502 39.716C37.382 39.7047 37.3024 39.6819 37.2341 39.6592C37.2 39.6592 37.1659 39.6365 37.109 39.6137C37.3024 39.5001 37.4957 39.3978 37.6663 39.2841C38.3032 38.8976 38.8264 38.3975 39.27 37.795C40.032 36.7606 39.8273 36.9539 40.976 36.7947C42.8185 36.5446 44.5701 35.9649 46.2192 35.101C46.7083 34.851 47.186 34.5782 47.6637 34.294C47.6978 34.2712 47.7319 34.2258 47.8115 34.2371Z" fill="#F0DA00"/>
<path d="M21.1063 48.5937C20.9357 48.3777 20.7878 48.1618 20.6058 47.9685C20.2078 47.5252 19.7642 47.1387 19.15 47.0364C18.7406 46.9682 18.3198 47.0023 17.8989 47.0137C17.1028 47.0478 16.318 47.0705 15.5332 46.9114C14.8508 46.7636 14.2821 46.3885 13.7135 46.002C13.2585 45.6951 12.8263 45.3655 12.3827 45.0472C12.178 44.8995 11.9619 44.7744 11.7117 44.6948C11.416 44.6039 11.0975 44.638 11.052 44.7971C10.9838 45.0472 11.1771 45.195 11.3364 45.3428C11.6776 45.661 11.7913 45.9225 11.7572 46.3772C11.507 46.218 11.2681 46.0702 11.0293 45.9111C10.7222 45.7065 10.3924 45.5474 10.0284 45.4678C9.91468 45.4451 9.80094 45.3996 9.69858 45.3541C9.25501 45.1495 9.18677 44.7289 9.53935 44.3879C9.74407 44.1947 10.0057 44.1265 10.2786 44.1151C11.1544 44.0697 11.9847 44.2743 12.7694 44.6721C13.4291 45.0131 14.0774 45.3541 14.7939 45.5246C15.5332 45.6951 16.2725 45.7406 17.0345 45.6838C17.9558 45.6042 18.8657 45.6497 19.7187 46.0816C20.6513 46.5477 21.1859 47.2751 21.1631 48.355C21.1631 48.4118 21.1631 48.4687 21.1518 48.5141C21.1518 48.5369 21.129 48.5482 21.1177 48.571L21.1063 48.5937Z" fill="#F0DA00"/>
<path d="M44.2401 46.3659C44.2401 45.968 44.3197 45.627 44.6496 45.377C44.7633 45.286 44.8657 45.1723 44.9339 45.0359C45.0249 44.8541 44.9794 44.7518 44.786 44.6949C44.5586 44.6267 44.3538 44.6836 44.1491 44.7631C43.842 44.8882 43.5804 45.0814 43.3075 45.2747C42.8184 45.627 42.318 45.9794 41.8175 46.3204C41.0896 46.8092 40.2821 47.0138 39.4177 47.0365C38.849 47.0479 38.269 47.0479 37.7003 46.9911C36.5971 46.8888 35.7895 47.3775 35.164 48.2301C35.0844 48.3437 34.9934 48.4574 34.891 48.6052C34.8114 48.2869 34.8455 48.0027 34.9138 47.7186C35.0958 46.9342 35.6076 46.4227 36.3127 46.0817C37.1544 45.6725 38.0415 45.6157 38.9514 45.6952C40.2935 45.8089 41.5673 45.5929 42.7502 44.9336C43.4667 44.5358 44.2174 44.2289 45.0363 44.138C45.3661 44.1039 45.6959 44.0925 46.0144 44.1607C46.185 44.1948 46.3442 44.263 46.4693 44.388C46.8333 44.729 46.765 45.161 46.3101 45.377C46.2646 45.3997 46.2191 45.4224 46.1736 45.4338C45.4912 45.5475 44.9453 45.9453 44.388 46.309C44.3538 46.3318 44.3197 46.3773 44.2401 46.3659Z" fill="#F0DA00"/>
<path d="M29.443 39.955C29.9889 40.6711 30.7623 40.9553 31.604 41.103C32.8209 41.3304 33.9469 41.0007 35.0615 40.5915C35.6075 40.3869 36.1534 40.1482 36.6766 39.8868C36.7676 39.8413 36.8472 39.8299 36.9495 39.8527C38.0755 40.1255 39.2015 40.1709 40.3275 39.864C40.3616 39.864 40.4071 39.864 40.464 39.864C40.4412 39.9663 40.3502 39.9891 40.2934 40.0345C38.8831 40.9553 37.3476 41.5805 35.7326 42.001C34.7658 42.2511 33.7877 42.4102 32.7982 42.3307C31.5698 42.2284 30.5349 41.7623 29.7842 40.7507C29.6136 40.5233 29.4885 40.2733 29.4202 40.0004C29.4089 39.955 29.4202 39.9436 29.4657 39.955H29.443Z" fill="#F0DA00"/>
<path d="M21.1631 50.7537C21.3223 50.5377 21.5384 50.4467 21.7431 50.3558C22.255 50.1512 22.7781 50.1285 23.3127 50.1967C24.143 50.299 24.9505 50.4695 25.7239 50.8105C26.5883 51.197 27.2138 51.8335 27.6347 52.6747C27.7029 52.8111 27.6688 52.8565 27.5437 52.902C26.5997 53.2658 25.6443 53.243 24.6889 52.9588C24.2453 52.8338 23.8131 52.686 23.4151 52.4587C22.9715 52.2086 22.6189 51.8676 22.3459 51.4357C22.0843 51.0037 21.7318 50.7082 21.1631 50.7423V50.7537Z" fill="#F0DA00"/>
<path d="M34.8341 50.765C34.3905 50.7309 34.0266 50.9014 33.8218 51.2538C33.1167 52.4587 31.9566 52.8679 30.6941 53.118C29.9321 53.2658 29.2042 53.1862 28.4763 52.9248C28.3284 52.8679 28.3057 52.8225 28.3853 52.6747C28.9426 51.538 29.8752 50.8673 31.0694 50.5377C31.695 50.3672 32.3319 50.2194 32.9802 50.1853C33.6057 50.1512 34.2085 50.2308 34.7317 50.6286C34.7772 50.6627 34.8227 50.6855 34.8341 50.765Z" fill="#F0DA00"/>
<path d="M28.1693 52.2085C28.1125 51.7879 28.1921 51.4015 28.3399 51.0264C28.8972 49.6055 29.8867 48.5825 31.3198 48.0709C32.3548 47.6958 33.3216 48.0141 34.1746 48.662C34.2542 48.7302 34.2656 48.7984 34.2542 48.8894C34.1859 49.2304 33.9471 49.4463 33.6741 49.6168C33.2533 49.8669 32.787 49.9692 32.3207 50.0374C31.661 50.1397 31.0127 50.2534 30.3985 50.5035C29.5796 50.8331 28.9427 51.4015 28.3399 52.0266C28.2831 52.0835 28.2376 52.1517 28.1807 52.2085H28.1693Z" fill="#F0DA00"/>
<path d="M27.8849 52.1973C27.7029 52.0154 27.5323 51.8677 27.373 51.7085C26.5086 50.8106 25.4395 50.299 24.2226 50.1172C23.6539 50.0262 23.0738 49.9694 22.5393 49.7193C22.2322 49.5716 21.9706 49.3897 21.8227 49.0828C21.6976 48.8213 21.7204 48.7531 21.9478 48.5826C23.1079 47.7301 24.45 47.7074 25.6215 48.5258C26.5655 49.1737 27.3162 49.9921 27.6915 51.0947C27.8166 51.4471 27.8962 51.8108 27.8735 52.2087L27.8849 52.1973Z" fill="#F0DA00"/>
<path d="M23.4492 43.7859C23.3695 43.6495 23.324 43.5585 23.2785 43.479C22.7667 42.5355 21.9592 42.0126 20.9128 41.8421C20.0485 41.6943 19.1727 41.6602 18.3197 41.5125C17.4098 41.3533 16.5909 41.0237 15.9653 40.3189C15.8061 40.1371 15.6582 39.9325 15.5673 39.7051C15.6014 39.671 15.6241 39.6824 15.6582 39.7051C16.6023 40.1598 17.5918 40.2166 18.6154 40.0689C19.1727 39.9893 19.7186 39.8984 20.2873 40.0007C20.5148 40.0348 20.7422 40.0916 20.947 40.2053C22.0729 40.8418 22.926 41.7171 23.3582 42.9561C23.4037 43.0925 23.4378 43.2289 23.4492 43.3766C23.4605 43.5017 23.4492 43.6154 23.4492 43.7972V43.7859Z" fill="#F0DA00"/>
<path d="M22.0047 52.2655C21.3109 51.9244 20.6285 51.6971 19.9233 51.5721C19.2864 51.4584 18.6495 51.4811 18.0012 51.4357C16.9548 51.3561 15.9426 51.1742 14.9986 50.6968C14.4868 50.4354 14.0432 50.0944 13.6565 49.6738C13.1333 49.0827 12.6215 48.4802 12.0073 47.9687C11.7002 47.7073 11.359 47.5027 10.8927 47.4459C11.268 47.2867 11.6206 47.2981 11.9732 47.3663C12.6556 47.5027 13.2243 47.8664 13.7361 48.3097C14.0659 48.6053 14.373 48.9349 14.7142 49.2191C15.5217 49.8898 16.4771 50.208 17.478 50.4126C18.3538 50.5945 19.2409 50.6854 20.1053 50.9469C20.6967 51.1174 21.2427 51.3788 21.6635 51.8449C21.7772 51.9699 21.8796 52.0949 21.9933 52.2882L22.0047 52.2655Z" fill="#F0DA00"/>
<path d="M45.0706 47.4344C44.536 47.5026 44.1266 47.8209 43.7513 48.1619C43.3532 48.5257 42.9779 48.9122 42.6366 49.3327C41.8178 50.3558 40.7486 50.9355 39.4862 51.2083C38.7696 51.3674 38.0417 51.4356 37.3138 51.447C36.2447 51.4584 35.2211 51.6857 34.243 52.1404C34.2088 52.1631 34.1633 52.1745 34.1292 52.1858C34.1292 52.1858 34.1065 52.1858 34.0951 52.1858C34.152 51.9926 34.4022 51.7084 34.6979 51.5038C35.2552 51.0946 35.9035 50.9014 36.5632 50.765C37.4958 50.5717 38.4512 50.4581 39.3724 50.1853C40.3164 49.9011 41.1467 49.435 41.8291 48.7075C42.3978 48.1051 43.0461 47.6163 43.865 47.3776C44.229 47.2753 44.5929 47.2526 44.9569 47.3549C45.0024 47.3662 45.0478 47.3776 45.082 47.4231L45.0706 47.4344Z" fill="#F0DA00"/>
<path d="M28.0099 50.7991C27.9075 50.5604 27.8166 50.3558 27.7142 50.1512C27.4981 49.7306 27.2024 49.3783 26.8271 49.0941C26.5882 48.9122 26.3494 48.7304 26.156 48.503C25.9058 48.2075 25.9399 48.0029 26.2697 47.8096C27.4299 47.139 28.5786 47.139 29.7387 47.8096C30.0685 48.0029 30.1026 48.2188 29.8524 48.503C29.6704 48.7076 29.4657 48.8895 29.2496 49.0486C28.6809 49.4692 28.3056 50.0148 28.0668 50.6741C28.0668 50.7082 28.044 50.7309 28.0213 50.7991H28.0099Z" fill="#F0DA00"/>
<path d="M27.9985 55.9713C27.8734 55.994 27.8507 55.8917 27.8165 55.8235C27.3957 55.0278 26.7702 54.4936 25.883 54.289C25.7124 54.2435 25.5305 54.2094 25.3599 54.2208C25.2006 54.2208 25.212 54.1639 25.2689 54.0503C25.3599 53.8911 25.4963 53.7774 25.6556 53.6979C25.8262 53.6069 26.0081 53.5387 26.2015 53.5387C26.8043 53.5274 27.3502 53.3341 27.862 53.0272C27.9644 52.959 28.0554 52.959 28.1578 53.0272C28.6696 53.3455 29.2155 53.516 29.8183 53.5501C30.1936 53.5728 30.5576 53.6979 30.7623 54.073C30.8192 54.1753 30.8078 54.2208 30.6713 54.2321C29.5453 54.289 28.7264 54.8459 28.2033 55.8349C28.1578 55.9144 28.1464 56.0281 28.0099 55.994L27.9985 55.9713Z" fill="#F0DA00"/>
<path d="M34.8342 50.0147C35.2892 49.9124 35.7441 49.8101 36.1877 49.6623C37.1089 49.3554 37.9847 48.9689 38.724 48.321C39.0425 48.0482 39.3154 47.7299 39.5201 47.3662C39.5656 47.2866 39.6111 47.2411 39.7135 47.2525C40.3049 47.298 40.885 47.2298 41.4082 46.9229C41.4082 46.9229 41.4309 46.9229 41.465 46.9229C41.3058 47.2752 41.0897 47.5708 40.8509 47.8549C39.9637 48.878 38.815 49.4577 37.5184 49.776C36.6426 49.9919 35.7441 50.0601 34.8342 50.0147Z" fill="#F0DA00"/>
<path d="M14.5322 46.8663C15.0895 47.2301 15.6696 47.2869 16.261 47.2642C16.352 47.2642 16.4316 47.2415 16.4885 47.3438C16.9548 48.1849 17.6941 48.7192 18.5357 49.1397C19.3319 49.5376 20.1621 49.799 21.0265 49.9695C21.0607 49.9695 21.1062 49.9923 21.1403 50.015C20.5716 50.0491 20.0029 50.015 19.4456 49.9468C18.2286 49.7877 17.0799 49.4239 16.0677 48.6851C15.5217 48.2872 15.0668 47.8098 14.7142 47.2187C14.6687 47.1392 14.6232 47.0482 14.5777 46.9686C14.5663 46.9459 14.555 46.9232 14.5436 46.855L14.5322 46.8663Z" fill="#F0DA00"/>
<path d="M13.5316 40.4668C14.1458 40.6941 14.4984 41.0806 14.6803 41.6262C14.8282 42.0809 14.8623 42.547 14.9419 43.013C15.0784 43.7746 15.3059 44.5248 15.5789 45.2523C15.6471 45.4569 15.6471 45.4455 15.431 45.4228C15.0898 45.3773 14.7713 45.275 14.4415 45.1727C14.2027 45.0932 14.0662 44.9454 13.9752 44.7294C13.7932 44.2975 13.7932 43.8542 13.8387 43.3995C13.8728 43.0357 13.9638 42.672 14.0207 42.3083C14.123 41.649 13.9752 41.0465 13.5316 40.4668Z" fill="#F0DA00"/>
<path d="M42.4771 40.4668C41.9426 41.1602 41.8743 41.8877 42.0563 42.672C42.1928 43.2744 42.2724 43.8769 42.1132 44.4907C42.0222 44.8545 41.8402 45.1159 41.4535 45.2182C41.1578 45.2978 40.8621 45.3773 40.555 45.4342C40.3958 45.4569 40.3617 45.4342 40.4185 45.275C40.6915 44.5362 40.919 43.786 41.0554 43.013C41.1351 42.5924 41.1692 42.1605 41.2829 41.7513C41.4535 41.1488 41.8061 40.7169 42.4658 40.4782L42.4771 40.4668Z" fill="#F0DA00"/>
<path d="M37.6437 36.0673C37.5831 36.0901 37.5224 36.1014 37.4617 36.1014C37.4617 36.0446 37.5186 36.0446 37.5641 36.0332L37.6437 36.0673Z" fill="#FAF5BE"/>
<path d="M48.1757 38.8867C48.1757 38.8867 48.0733 38.9321 48.005 38.9208C48.0164 38.8639 48.0619 38.8639 48.1074 38.8525L48.1871 38.8867H48.1757Z" fill="#F7EC7E"/>
<path d="M18.0354 33.7711C18.0354 33.7711 18.115 33.7939 18.1378 33.828C18.0809 33.8621 18.0354 33.8507 17.9899 33.8053L18.024 33.7598L18.0354 33.7711Z" fill="#F8F09B"/>
<path d="M38.0191 33.8168C38.0191 33.8168 37.9394 33.8623 37.8939 33.851C37.8939 33.7941 37.9508 33.7941 37.985 33.7827L38.0191 33.8168Z" fill="#F9F099"/>
<path d="M14.191 33.6807C14.191 33.6807 14.2593 33.6807 14.2821 33.6353C14.3162 33.658 14.3617 33.6807 14.3276 33.7149C14.2935 33.749 14.2252 33.7149 14.191 33.6807Z" fill="#F2E026"/>
<path d="M18.536 36.0674L18.6726 36.1129C18.6726 36.1129 18.5815 36.147 18.536 36.1129V36.0674Z" fill="#F9EF9A"/>
<path d="M38.2237 31.3502C38.2237 31.3502 38.1327 31.3957 38.0758 31.3729C38.0872 31.3161 38.1441 31.3161 38.1782 31.3047L38.2237 31.3502Z" fill="#F9F2AD"/>
<path d="M7.9128 38.8525C7.9128 38.8525 7.99246 38.8753 8.01522 38.9094C7.95832 38.9435 7.9128 38.9322 7.87866 38.898L7.9128 38.8525Z" fill="#F7EC7D"/>
<path d="M29.4433 39.9551L29.3978 40.0006C29.3978 40.0006 29.3295 39.9096 29.375 39.8755C29.3864 39.8641 29.4205 39.921 29.4319 39.9665L29.4433 39.9551Z" fill="#F3E449"/>
<path d="M17.842 31.3161L17.9672 31.3502C17.9672 31.3502 17.9672 31.407 17.933 31.3957C17.8875 31.3957 17.842 31.3957 17.8079 31.3502L17.8534 31.3047L17.842 31.3161Z" fill="#F9F3AF"/>
<path d="M11.45 25.0417C11.45 25.0417 11.4841 24.9848 11.4955 24.9507C11.5296 24.9962 11.5524 25.053 11.5182 25.0872C11.4955 25.1099 11.4613 25.0644 11.45 25.0303V25.0417Z" fill="#F4E448"/>
<path d="M41.7381 33.6349C41.7381 33.6349 41.795 33.6804 41.8291 33.6804C41.7836 33.7145 41.7267 33.7486 41.6812 33.6918C41.6698 33.669 41.7039 33.6463 41.7381 33.6235V33.6349Z" fill="#F2DF23"/>
<path d="M28.0102 10.7073C26.5658 10.7073 25.3943 9.53653 25.3829 8.09292C25.3829 6.64931 26.5544 5.47852 27.9989 5.47852C29.4433 5.47852 30.6148 6.64931 30.6262 8.09292C30.6262 9.53653 29.4547 10.7073 28.0102 10.7073Z" fill="#FEFEFE"/>
<path d="M33.3782 8.10454L30.967 8.67289C31.0239 8.27504 31.0353 7.89993 30.967 7.49072L33.3896 8.07044V8.10454H33.3782Z" fill="#FEFEFE"/>
<path d="M30.6487 12.7424L28.9426 10.9578C29.318 10.8214 29.6592 10.6395 29.9662 10.3667L30.6828 12.7083L30.6487 12.731V12.7424Z" fill="#FEFEFE"/>
<path d="M30.8533 9.08252L32.6049 10.7421C32.548 10.7989 32.5025 10.7762 32.4684 10.7648C31.786 10.5602 31.1149 10.3556 30.4325 10.151C30.2733 10.1055 30.2733 10.0601 30.3756 9.94641C30.5804 9.69634 30.7282 9.41216 30.8533 9.08252Z" fill="#FEFEFE"/>
<path d="M30.2505 6.09286L32.6958 5.354L30.8533 7.09315C30.7054 6.72941 30.5235 6.39977 30.2505 6.09286Z" fill="#FEFEFE"/>
<path d="M27.0322 5.24005C26.6568 5.38782 26.327 5.55832 26.0199 5.83113L25.292 3.48953L25.3261 3.4668L27.0208 5.24005H27.0322Z" fill="#FEFEFE"/>
<path d="M22.5851 8.09352L25.0532 7.50244C25.0077 7.86618 24.9963 8.21856 25.0418 8.57094C25.0645 8.70734 24.9508 8.63914 24.9053 8.62777C24.2456 8.48 23.5973 8.32086 22.9377 8.17309C22.8353 8.15036 22.7443 8.12763 22.5851 8.09352Z" fill="#FEFEFE"/>
<path d="M23.381 10.7531L25.1553 9.0708C25.2917 9.43454 25.4737 9.76419 25.7353 10.0711L23.4037 10.7986L23.381 10.7531Z" fill="#FEFEFE"/>
<path d="M25.1669 7.10411L23.3926 5.43316V5.3877L25.7355 6.11518C25.4853 6.42209 25.292 6.729 25.1669 7.10411Z" fill="#FEFEFE"/>
<path d="M25.2804 12.6853L26.0197 10.3438C26.3154 10.5825 26.6225 10.7757 27.0092 10.9121L25.3259 12.6967L25.2918 12.674L25.2804 12.6853Z" fill="#FEFEFE"/>
<path d="M28.5788 5.13804C28.1807 5.06984 27.8168 5.06984 27.4301 5.13804L27.976 2.75098H28.0215L28.5788 5.13804Z" fill="#FEFEFE"/>
<path d="M28.5332 11.0485L27.9646 13.4469H27.9304L27.3959 11.0371C27.7826 11.0826 28.1465 11.128 28.5446 11.0371L28.5332 11.0485Z" fill="#FEFEFE"/>
<path d="M30.6713 3.45535L29.9548 5.79695C29.6591 5.55824 29.352 5.37637 28.9767 5.23997L30.6372 3.43262L30.6713 3.45535Z" fill="#FEFEFE"/>
<path d="M37.9734 41.6375C36.7336 42.2058 35.4257 42.5355 34.095 42.7742C33.9585 42.7969 33.8447 42.8424 33.7538 42.9561C33.4694 43.2743 33.1168 43.4789 32.7074 43.5471C31.7293 43.6949 30.9217 43.3539 30.2621 42.6378C29.6593 41.9899 29.3522 41.1714 29.1133 40.3303C28.8176 39.3073 28.6811 38.2615 28.5902 37.2044C28.5219 36.4769 28.4992 35.7494 28.6015 35.0219C28.738 34.0216 29.0792 33.0781 29.5114 32.1688C29.9664 31.214 30.3758 30.2478 30.5692 29.1906C30.7511 28.179 30.5578 27.2924 29.7389 26.599C29.5 26.3944 29.2271 26.2352 28.9541 26.0761C28.7039 25.9283 28.4878 25.7464 28.3741 25.4623C28.3172 25.3031 28.2944 25.1326 28.4423 25.0076C28.5902 24.8939 28.738 24.9621 28.8745 25.0531C29.0565 25.1781 29.1816 25.36 29.3067 25.5418C29.5797 25.9056 29.864 26.2693 30.228 26.5535C30.9445 27.0991 31.7748 27.156 32.6278 27.0764C33.0259 27.0423 33.3671 26.8831 33.6173 26.5649C33.9926 26.0761 34.0836 25.5077 34.095 24.9053C33.9926 24.9508 33.9471 25.019 33.8902 25.0758C33.0941 25.8829 32.0818 26.0193 31.1037 25.4736C30.808 25.3145 30.535 25.1099 30.2734 24.9053C29.8413 24.5643 29.4318 24.2119 28.9655 23.9164C28.1693 23.4049 27.3504 23.3821 26.5202 23.8254C26.3951 23.8936 26.2699 23.9618 26.1335 24.0414C26.0425 23.7004 26.0311 23.3708 26.1107 23.0297C26.1903 22.6887 26.4064 22.4841 26.7476 22.4159C26.9751 22.3705 27.214 22.3705 27.4414 22.4159C28.2603 22.5523 28.9541 22.9502 29.6138 23.4276C30.6715 24.1892 31.8771 24.4279 33.1168 24.121C34.186 23.8482 34.7888 23.007 35.1186 21.984C35.1982 21.7453 35.1755 21.5066 35.0617 21.2565C34.7774 21.427 34.493 21.5748 34.1973 21.7112C32.9804 22.3023 31.7861 22.2795 30.6033 21.5975C29.9891 21.2451 29.4204 20.8245 28.8859 20.3358C28.6243 20.0971 28.3172 19.972 27.9646 19.9379C27.2253 19.8697 26.5543 20.063 25.9287 20.404C25.5989 20.5858 25.2918 20.8018 25.1326 21.1428C24.6322 22.2568 24.6094 23.3708 25.1553 24.4733C25.2463 24.6552 25.2008 24.6666 25.0302 24.6893C24.4161 24.7803 23.8587 24.9962 23.3697 25.3941C22.9034 25.7692 22.6077 26.258 22.4825 26.8604C22.9602 26.6558 23.4152 26.5308 23.9042 26.4626C24.9734 26.3148 25.8719 26.8945 26.1448 27.9516C26.2131 28.2017 26.2586 28.4632 26.2927 28.7132C26.3837 29.327 26.7021 29.7249 27.3163 29.8727C27.4983 29.9181 27.6689 29.9863 27.8281 30.0886C28.1921 30.316 28.3286 30.6456 28.2376 31.0662C28.1807 31.3276 28.0783 31.555 27.9419 31.7823C27.1002 33.1918 26.2586 34.6127 25.4283 36.0222C24.9734 36.7952 24.4502 37.5226 24.0976 38.3524C23.5972 39.4891 23.3356 40.6827 23.5289 41.9217C23.8474 44.0587 25.2122 46.082 27.794 46.7413C29.6706 47.2187 31.5245 47.105 33.3329 46.4798C35.5735 45.7182 37.3251 44.3428 38.451 42.2399C38.6558 41.8648 38.8264 41.4783 38.9742 41.035C38.633 41.2851 38.3032 41.467 37.9506 41.6261L37.9734 41.6375ZM28.1693 27.5424C27.9419 27.4515 27.8168 27.2696 27.7599 27.0423C27.6689 26.6899 27.521 26.383 27.1798 26.2011C27.7713 26.1898 28.2831 26.3603 28.7039 26.7695C28.92 26.9741 28.9769 27.2014 28.8517 27.3833C28.7266 27.5765 28.4082 27.6447 28.1693 27.5538V27.5424Z" fill="#F0DA00"/>
<path d="M17.9218 31.3956L17.9559 31.3501L18.047 31.407C18.047 31.407 17.9559 31.4297 17.9104 31.3956H17.9218Z" fill="#F4E549"/>
<path d="M72.2 19.16H102.16V22.88H76V47.4H72.2V19.16ZM100.24 19.16H104.08V42.72C104.08 43.8133 103.933 44.6667 103.64 45.28C103.373 45.92 102.867 46.3867 102.12 46.68C101.373 47 100.387 47.1867 99.16 47.24C97.96 47.32 96.4933 47.36 94.76 47.36C94.7333 46.9867 94.64 46.56 94.48 46.08C94.3467 45.6267 94.1867 45.16 94 44.68C93.8133 44.2267 93.64 43.8267 93.48 43.48C94.28 43.5067 95.08 43.5333 95.88 43.56C96.68 43.56 97.3867 43.56 98 43.56C98.6133 43.56 99.04 43.56 99.28 43.56C99.6533 43.5333 99.9067 43.4667 100.04 43.36C100.173 43.2267 100.24 43 100.24 42.68V19.16ZM79.24 11.96H88V15.28H79.24V11.96ZM85.48 11.96H89.56C89.6933 14.7067 89.96 17.2667 90.36 19.64C90.7867 22.0133 91.4133 24.1733 92.24 26.12C93.0667 28.0667 94.1333 29.76 95.44 31.2C96.7467 32.64 98.36 33.8 100.28 34.68C100.013 34.92 99.7067 35.24 99.36 35.64C99.04 36.0133 98.72 36.4133 98.4 36.84C98.08 37.24 97.8133 37.6133 97.6 37.96C95.6 36.8667 93.9067 35.52 92.52 33.92C91.1333 32.32 89.9867 30.4933 89.08 28.44C88.2 26.36 87.5333 24.0933 87.08 21.64C86.6267 19.16 86.32 16.5333 86.16 13.76H85.48V11.96ZM85.84 20.12L89.36 20.72C88.6667 24.88 87.4533 28.4133 85.72 31.32C83.9867 34.2267 81.52 36.52 78.32 38.2C78.16 37.9067 77.9333 37.5733 77.64 37.2C77.3467 36.8 77.0267 36.4133 76.68 36.04C76.36 35.6667 76.0667 35.3733 75.8 35.16C78.7067 33.7733 80.9733 31.8267 82.6 29.32C84.2267 26.7867 85.3067 23.72 85.84 20.12ZM109.92 12.84H128.32V16.48H109.92V12.84ZM119.88 24.52H126.96V28.08H119.88V24.52ZM118.2 14.8H121.88V40H118.2V14.8ZM111.36 22H114.8V41H111.36V22ZM109.12 39.96C110.693 39.6933 112.52 39.3467 114.6 38.92C116.707 38.4933 118.933 38.0267 121.28 37.52C123.627 37.0133 125.947 36.5067 128.24 36L128.6 39.48C126.387 39.9867 124.16 40.5067 121.92 41.04C119.68 41.5467 117.52 42.04 115.44 42.52C113.36 43 111.48 43.4267 109.8 43.8L109.12 39.96ZM131.12 17.64H146.56V21.12H131.12V17.64ZM132.32 10.2L136.08 10.84C135.6 13.3467 135 15.8 134.28 18.2C133.56 20.5733 132.733 22.7733 131.8 24.8C130.867 26.8267 129.813 28.6 128.64 30.12C128.453 29.88 128.173 29.6 127.8 29.28C127.453 28.96 127.08 28.64 126.68 28.32C126.307 28 125.973 27.7467 125.68 27.56C126.8 26.2 127.773 24.6133 128.6 22.8C129.453 20.96 130.187 18.9733 130.8 16.84C131.44 14.68 131.947 12.4667 132.32 10.2ZM140.28 19.64L144.08 20C143.44 24.56 142.493 28.5867 141.24 32.08C140.013 35.5467 138.32 38.5467 136.16 41.08C134.027 43.5867 131.28 45.72 127.92 47.48C127.813 47.16 127.627 46.7867 127.36 46.36C127.12 45.96 126.853 45.5467 126.56 45.12C126.267 44.72 126 44.3867 125.76 44.12C128.853 42.68 131.373 40.84 133.32 38.6C135.293 36.3333 136.827 33.64 137.92 30.52C139.013 27.3733 139.8 23.7467 140.28 19.64ZM132.84 20.6C133.48 24.1733 134.373 27.52 135.52 30.64C136.693 33.7333 138.213 36.44 140.08 38.76C141.947 41.08 144.227 42.8667 146.92 44.12C146.653 44.36 146.347 44.6667 146 45.04C145.653 45.44 145.333 45.84 145.04 46.24C144.747 46.64 144.507 47.0133 144.32 47.36C141.467 45.84 139.067 43.8133 137.12 41.28C135.2 38.72 133.627 35.7467 132.4 32.36C131.2 28.9733 130.24 25.24 129.52 21.16L132.84 20.6ZM172.76 12.28H183.16V15.68H176.12V47.24H172.76V12.28ZM182.4 12.28H183.12L183.68 12.12L186.28 13.76C185.587 15.6533 184.813 17.68 183.96 19.84C183.133 21.9733 182.32 23.9333 181.52 25.72C183.227 27.5867 184.347 29.32 184.88 30.92C185.413 32.4933 185.68 33.96 185.68 35.32C185.68 36.6 185.533 37.72 185.24 38.68C184.947 39.6133 184.453 40.32 183.76 40.8C183.413 41.0133 183.013 41.2 182.56 41.36C182.133 41.4933 181.667 41.6 181.16 41.68C180.707 41.7333 180.187 41.7733 179.6 41.8C179.04 41.8 178.467 41.7867 177.88 41.76C177.853 41.2533 177.76 40.6667 177.6 40C177.467 39.3067 177.24 38.7067 176.92 38.2C177.453 38.2533 177.947 38.2933 178.4 38.32C178.88 38.32 179.307 38.3067 179.68 38.28C179.973 38.2533 180.253 38.2133 180.52 38.16C180.787 38.08 181.027 37.9867 181.24 37.88C181.587 37.64 181.84 37.2533 182 36.72C182.16 36.1867 182.227 35.5867 182.2 34.92C182.2 33.72 181.907 32.4 181.32 30.96C180.733 29.4933 179.6 27.8933 177.92 26.16C178.32 25.1467 178.733 24.0667 179.16 22.92C179.613 21.7467 180.04 20.5867 180.44 19.44C180.84 18.2667 181.213 17.16 181.56 16.12C181.907 15.08 182.187 14.2 182.4 13.48V12.28ZM151 14.8H170.08V18.24H151V14.8ZM149.88 25.6H170.96V29.04H149.88V25.6ZM153.28 19.16L156.52 18.32C157.08 19.3333 157.587 20.44 158.04 21.64C158.52 22.84 158.853 23.8933 159.04 24.8L155.6 25.76C155.44 24.8533 155.133 23.7867 154.68 22.56C154.253 21.3333 153.787 20.2 153.28 19.16ZM164.72 18.2L168.48 19.08C168.107 19.9867 167.72 20.9333 167.32 21.92C166.92 22.88 166.52 23.8 166.12 24.68C165.72 25.56 165.333 26.3333 164.96 27L161.76 26.2C162.133 25.48 162.507 24.6533 162.88 23.72C163.253 22.7867 163.6 21.84 163.92 20.88C164.24 19.8933 164.507 19 164.72 18.2ZM153.96 42H167.32V45.32H153.96V42ZM152 32.36H169.28V46.92H165.52V35.76H155.56V47.2H152V32.36ZM157.48 10.96L160.92 10C161.347 10.8533 161.76 11.7867 162.16 12.8C162.587 13.8133 162.907 14.6667 163.12 15.36L159.48 16.52C159.32 15.8 159.04 14.92 158.64 13.88C158.267 12.8133 157.88 11.84 157.48 10.96ZM204.72 21.56H221.8V25H204.72V21.56ZM202.96 21.56H206.48V33.24C206.48 34.7067 206.413 36.32 206.28 38.08C206.173 39.8133 205.933 41.5067 205.56 43.16C205.187 44.8133 204.6 46.2933 203.8 47.6C203.613 47.3867 203.333 47.1333 202.96 46.84C202.613 46.5733 202.24 46.3067 201.84 46.04C201.467 45.7733 201.147 45.5733 200.88 45.44C201.52 44.2933 201.987 43.0267 202.28 41.64C202.6 40.2267 202.787 38.8 202.84 37.36C202.92 35.8933 202.96 34.5067 202.96 33.2V21.56ZM206.76 36.28C207.987 36.04 209.4 35.7467 211 35.4C212.6 35.0533 214.28 34.68 216.04 34.28C217.827 33.8533 219.613 33.44 221.4 33.04L221.76 36C219.36 36.64 216.947 37.2667 214.52 37.88C212.12 38.4667 209.933 39 207.96 39.48L206.76 36.28ZM207.4 29.48L208.92 27.12C210.04 27.3333 211.213 27.6267 212.44 28C213.667 28.3733 214.84 28.7733 215.96 29.2C217.08 29.6 218 30 218.72 30.4L217.16 33.04C216.44 32.64 215.52 32.2133 214.4 31.76C213.307 31.3067 212.147 30.88 210.92 30.48C209.693 30.0533 208.52 29.72 207.4 29.48ZM222.12 11.24L225.8 12.64C225.133 14 224.413 15.36 223.64 16.72C222.867 18.0533 222.147 19.2133 221.48 20.2L218.2 18.88C218.653 18.1867 219.12 17.4133 219.6 16.56C220.08 15.68 220.547 14.7733 221 13.84C221.453 12.9067 221.827 12.04 222.12 11.24ZM201.92 12.92L205.12 11.52C205.653 12.24 206.2 13.04 206.76 13.92C207.32 14.8 207.813 15.6667 208.24 16.52C208.667 17.3467 208.987 18.1067 209.2 18.8L205.76 20.44C205.573 19.7467 205.28 18.9733 204.88 18.12C204.48 17.24 204.027 16.3467 203.52 15.44C203.013 14.5333 202.48 13.6933 201.92 12.92ZM220.64 21.56H224.32V43C224.32 43.96 224.2 44.72 223.96 45.28C223.747 45.84 223.293 46.28 222.6 46.6C221.96 46.8933 221.107 47.0667 220.04 47.12C218.973 47.1733 217.68 47.2 216.16 47.2C216.107 46.72 215.96 46.12 215.72 45.4C215.507 44.7067 215.267 44.12 215 43.64C216.04 43.6667 217.027 43.6933 217.96 43.72C218.893 43.72 219.52 43.72 219.84 43.72C220.373 43.6933 220.64 43.44 220.64 42.96V21.56ZM211.84 10.2H215.68V23.84H211.84V10.2ZM191.48 13.44L193.72 10.8C194.493 11.2267 195.333 11.7067 196.24 12.24C197.173 12.7467 198.067 13.2533 198.92 13.76C199.773 14.2667 200.48 14.72 201.04 15.12L198.72 18.16C198.213 17.7333 197.533 17.2533 196.68 16.72C195.853 16.16 194.973 15.6 194.04 15.04C193.133 14.4533 192.28 13.92 191.48 13.44ZM189.24 24.48L191.32 21.72C192.093 22.0667 192.947 22.4933 193.88 23C194.813 23.48 195.72 23.96 196.6 24.44C197.507 24.8933 198.24 25.32 198.8 25.72L196.68 28.84C196.147 28.44 195.44 27.9867 194.56 27.48C193.707 26.9733 192.813 26.4533 191.88 25.92C190.947 25.3867 190.067 24.9067 189.24 24.48ZM190.6 44.32C191.32 43.3067 192.12 42.0933 193 40.68C193.907 39.2667 194.813 37.7733 195.72 36.2C196.627 34.6 197.467 33.04 198.24 31.52L201 34.04C200.307 35.4267 199.547 36.88 198.72 38.4C197.92 39.8933 197.093 41.36 196.24 42.8C195.413 44.24 194.6 45.6 193.8 46.88L190.6 44.32ZM251.88 11L255.32 10.16C255.693 11.0933 256.067 12.1067 256.44 13.2C256.813 14.2667 257.093 15.1733 257.28 15.92L253.64 16.96C253.507 16.2133 253.253 15.28 252.88 14.16C252.533 13.0133 252.2 11.96 251.88 11ZM243.16 16.8H266.2V20.36H243.16V16.8ZM250.88 25.88H261.48V29.32H250.88V25.88ZM260.16 25.88H263.92C263.92 25.88 263.92 25.9867 263.92 26.2C263.92 26.3867 263.907 26.6133 263.88 26.88C263.88 27.1467 263.88 27.36 263.88 27.52C263.773 30.56 263.667 33.1467 263.56 35.28C263.453 37.4133 263.32 39.1867 263.16 40.6C263 41.9867 262.813 43.0933 262.6 43.92C262.387 44.72 262.133 45.3067 261.84 45.68C261.44 46.1867 261 46.5467 260.52 46.76C260.067 46.9733 259.52 47.12 258.88 47.2C258.293 47.28 257.52 47.32 256.56 47.32C255.6 47.32 254.587 47.2933 253.52 47.24C253.493 46.7067 253.373 46.08 253.16 45.36C252.973 44.6667 252.72 44.0533 252.4 43.52C253.413 43.6 254.347 43.6533 255.2 43.68C256.053 43.7067 256.68 43.72 257.08 43.72C257.693 43.7467 258.173 43.5733 258.52 43.2C258.813 42.88 259.053 42.1467 259.24 41C259.453 39.8267 259.627 38.08 259.76 35.76C259.92 33.44 260.053 30.3733 260.16 26.56V25.88ZM249 18.76H252.76C252.68 21.8533 252.52 24.8267 252.28 27.68C252.04 30.5067 251.56 33.1467 250.84 35.6C250.147 38.0267 249.067 40.2267 247.6 42.2C246.16 44.1733 244.2 45.8533 241.72 47.24C241.48 46.8133 241.107 46.3067 240.6 45.72C240.12 45.16 239.667 44.72 239.24 44.4C241.533 43.1467 243.32 41.6533 244.6 39.92C245.907 38.16 246.867 36.1867 247.48 34C248.093 31.7867 248.48 29.4 248.64 26.84C248.827 24.28 248.947 21.5867 249 18.76ZM231.12 11.96H241.24V15.36H234.68V47.36H231.12V11.96ZM240.16 11.96H240.84L241.4 11.8L243.96 13.28C243.587 14.4533 243.16 15.68 242.68 16.96C242.227 18.24 241.773 19.52 241.32 20.8C240.867 22.0533 240.413 23.2267 239.96 24.32C241.4 25.9733 242.333 27.52 242.76 28.96C243.213 30.4 243.44 31.7333 243.44 32.96C243.44 34.16 243.293 35.1867 243 36.04C242.733 36.8667 242.293 37.4933 241.68 37.92C241.36 38.16 241 38.3467 240.6 38.48C240.227 38.6133 239.84 38.7067 239.44 38.76C239.04 38.8133 238.587 38.84 238.08 38.84C237.573 38.84 237.08 38.84 236.6 38.84C236.573 38.3333 236.48 37.76 236.32 37.12C236.187 36.4533 235.973 35.88 235.68 35.4C236.133 35.4267 236.547 35.4533 236.92 35.48C237.293 35.48 237.613 35.4667 237.88 35.44C238.387 35.44 238.827 35.3333 239.2 35.12C239.467 34.9067 239.653 34.5733 239.76 34.12C239.893 33.64 239.96 33.0933 239.96 32.48C239.96 31.44 239.733 30.2667 239.28 28.96C238.853 27.6533 237.947 26.2533 236.56 24.76C236.907 23.8267 237.253 22.8267 237.6 21.76C237.947 20.6667 238.28 19.5867 238.6 18.52C238.92 17.4533 239.213 16.4533 239.48 15.52C239.747 14.56 239.973 13.7467 240.16 13.08V11.96ZM294.24 14.36V17.64H300.12V14.36H294.24ZM285.04 14.36V17.64H290.76V14.36H285.04ZM276 14.36V17.64H281.56V14.36H276ZM272.4 11.72H303.88V20.32H272.4V11.72ZM270.16 28.2H305.88V31.24H270.16V28.2ZM274.32 22.68H297.32V25.64H274.32V22.68ZM280.28 38.44H300.12V40.92H280.28V38.44ZM280.2 43.4H300.12V46.16H280.2V43.4ZM301.28 21.44L304.28 23.28C302.333 25.28 300.093 27.1067 297.56 28.76C295.027 30.4133 292.307 31.9067 289.4 33.24C286.493 34.5733 283.48 35.76 280.36 36.8C277.267 37.8133 274.173 38.7067 271.08 39.48C270.973 39.1867 270.8 38.84 270.56 38.44C270.347 38.04 270.12 37.64 269.88 37.24C269.64 36.8133 269.413 36.48 269.2 36.24C272.32 35.6 275.4 34.8133 278.44 33.88C281.507 32.9467 284.44 31.8667 287.24 30.64C290.067 29.3867 292.667 28 295.04 26.48C297.44 24.9333 299.52 23.2533 301.28 21.44ZM284.96 20.08H288.6V29.68H284.96V20.08ZM281.96 33.56H300.44V36.28H281.96V47.28H278.44V35.72L280.56 33.56H281.96ZM298.68 33.56H302.36V47.2H298.68V33.56Z" fill="#1C202E" fill-opacity="0.7"/>
</svg>
