<svg width="32" height="32" viewBox="0 0 32 32" fill="none" xmlns="http://www.w3.org/2000/svg">
<path d="M11.3784 4.63125C11.3719 2.08504 13.4387 0.00651055 15.9929 1.51352e-05C18.547 -0.00648028 20.6398 2.07855 20.6333 4.63125C20.6268 7.19044 18.5665 9.24949 16.0124 9.25598C13.4582 9.25598 11.3849 7.19044 11.3784 4.63125Z" fill="#10009B"/>
<path d="M21.8423 17.9145C22.3818 17.7845 22.8497 17.5117 23.2787 17.161C24.0326 16.5439 24.5915 15.7775 25.0594 14.9396C25.0789 14.9071 25.0854 14.8616 25.1374 14.8291C25.1569 15.2189 25.0984 15.5891 24.988 15.9463C24.7475 16.7063 24.286 17.3234 23.7206 17.869C23.1227 18.4471 22.4403 18.9147 21.7059 19.2915C21.7059 19.298 21.6864 19.3045 21.6929 19.3175C21.6994 19.3305 21.7189 19.3175 21.7319 19.3175C22.1413 19.2135 22.4923 19.0057 22.8367 18.7783C23.3762 18.4211 23.8636 17.9989 24.325 17.5507C24.3575 17.5182 24.3835 17.4793 24.4225 17.4208C24.455 17.4987 24.442 17.5377 24.429 17.5832C24.299 18.1288 24.0196 18.603 23.6491 19.0187C23.0512 19.6877 22.3233 20.1749 21.5239 20.5581C21.5044 20.5646 21.4914 20.5776 21.4719 20.5841C21.4719 20.636 21.4979 20.61 21.5174 20.6036C21.9268 20.4996 22.2908 20.3048 22.6482 20.0839C22.9472 19.902 23.2267 19.7007 23.4996 19.4863C23.5191 19.4734 23.5386 19.4539 23.5841 19.4279C23.4866 19.7072 23.3567 19.941 23.2007 20.1619C22.7327 20.8049 22.1023 21.2531 21.4004 21.6038C21.2054 21.7013 21.004 21.7857 20.796 21.8702C21.0884 21.9156 21.3744 21.8052 22.3623 21.2726C22.3753 21.3245 22.3363 21.3505 22.3103 21.3765C22.0113 21.7532 21.6539 22.078 21.2444 22.3313C20.5945 22.7341 19.9056 23.0588 19.1712 23.2667C18.7487 23.3901 18.3263 23.3836 17.8973 23.2667C17.2279 23.0783 16.799 22.6626 16.63 21.9806C16.539 21.6103 16.5065 21.2336 16.5585 20.8569C16.5585 20.8374 16.5585 20.8114 16.591 20.7919C16.669 21.0582 16.7795 21.2986 16.942 21.5194C17.1954 21.8637 17.5009 22.143 17.9298 22.2469C18.0468 22.2729 18.1703 22.2794 18.2873 22.2599C18.4888 22.2339 18.6057 22.104 18.6187 21.9026C18.6382 21.6818 18.5733 21.4674 18.5083 21.2596C18.4043 20.9413 18.2808 20.636 18.1963 20.3178C17.9428 19.3564 18.2808 18.4925 19.1127 17.9404C19.4246 17.7326 19.7561 17.5767 20.1006 17.4273C21.5499 16.8102 22.6547 15.784 23.5711 14.5303C24.208 13.66 24.728 12.7311 25.0204 11.6789C25.0529 11.5619 25.0789 11.445 25.1049 11.3281C25.1309 11.2112 25.1439 11.0943 25.1699 10.9644C25.2089 10.9838 25.2154 11.0293 25.2284 11.0618C25.4624 11.6983 25.5209 12.3609 25.4494 13.0299C25.2479 14.7902 24.3185 16.1152 22.9537 17.1805C22.5963 17.4598 22.2128 17.6871 21.8098 17.8885C21.8098 17.895 21.7904 17.9015 21.7969 17.9145C21.8033 17.9209 21.8228 17.9145 21.8358 17.9145H21.8423Z" fill="#F0DA00"/>
<path d="M10.3061 19.2976C9.34424 18.7975 8.47335 18.1674 7.78443 17.323C7.32949 16.7644 7.01103 16.1474 6.90054 15.4264C6.87455 15.2315 6.85505 15.0366 6.86805 14.8353C6.91354 14.8613 6.92004 14.9002 6.93954 14.9327C7.40748 15.7706 7.95991 16.5371 8.70732 17.1477C9.13626 17.5049 9.6107 17.7842 10.1631 17.9141C10.1891 17.9206 10.2086 17.9141 10.2346 17.9271C10.2151 17.9271 10.1956 17.9141 10.1826 17.8946C9.01278 17.31 8.0574 16.4786 7.36198 15.3679C6.84205 14.53 6.52359 13.6271 6.51709 12.6333C6.51709 12.1007 6.57558 11.5746 6.76406 11.0744C6.77706 11.042 6.79006 11.0095 6.80955 10.9575C6.84855 11.1524 6.87455 11.3278 6.91354 11.4966C7.13451 12.4125 7.53746 13.2504 8.0574 14.0299C8.63583 14.9002 9.29224 15.6992 10.1176 16.3422C10.7091 16.8034 11.359 17.1606 12.0284 17.4984C12.3859 17.6803 12.7433 17.8621 13.0618 18.109C13.4647 18.4208 13.6467 18.843 13.6922 19.3366C13.7312 19.7913 13.6337 20.22 13.4257 20.6162C13.0423 21.3502 12.9708 22.1296 12.9903 22.9351C12.9903 23.1039 13.0358 23.2663 13.0943 23.4547C13.0098 23.3768 12.9383 23.3183 12.8733 23.2598C12.4898 22.9351 12.0479 22.7337 11.554 22.6493C11.177 22.5843 10.8066 22.4804 10.4751 22.2725C10.1046 22.0387 9.84467 21.7074 9.6302 21.2917C9.89667 21.4541 10.1306 21.597 10.3841 21.7074C10.6376 21.8114 10.8975 21.9023 11.203 21.8958C9.99416 21.3827 8.93479 20.7331 8.42785 19.4535C8.59683 19.5769 8.76581 19.7068 8.93479 19.8303C9.41573 20.1615 9.91617 20.4603 10.4881 20.6227C10.5141 20.6292 10.5401 20.6357 10.5661 20.6357C10.5791 20.6357 10.5856 20.6422 10.5986 20.6357C10.5856 20.6357 10.5791 20.6162 10.5661 20.6097C9.83818 20.2719 9.16226 19.8497 8.58383 19.2781C8.09639 18.7975 7.71944 18.2519 7.55696 17.5699C7.55046 17.5309 7.53746 17.4919 7.54396 17.4399C7.67395 17.5634 7.79743 17.6803 7.92091 17.7907C8.45385 18.2843 9.01928 18.739 9.6627 19.0833C9.85117 19.1807 10.0461 19.2717 10.2606 19.3171C10.2736 19.3171 10.2866 19.3301 10.2996 19.3171C10.3061 19.3106 10.2931 19.3041 10.2866 19.2911L10.3061 19.2976Z" fill="#F0DA00"/>
<path d="M21.1334 2.17578C21.1464 2.40962 21.1594 2.61747 21.2244 2.82532C21.3154 3.11112 21.4909 3.29949 21.7834 3.40991C23.1352 3.91006 24.4025 4.5596 25.5399 5.45597C26.3718 6.112 27.0477 6.91094 27.4377 7.90474C27.9511 9.21032 27.8731 10.5029 27.3012 11.7695C26.8657 12.7438 26.2158 13.5687 25.4619 14.3157C25.4554 14.3222 25.4424 14.3287 25.4294 14.3417C25.4879 14.0559 25.5529 13.7766 25.5984 13.4908C25.7089 12.8542 25.7739 12.2112 25.7024 11.5617C25.6764 11.3018 25.6114 11.0485 25.4879 10.8147C25.2929 10.4509 25.2799 10.0742 25.4099 9.68448C25.5074 9.38569 25.6244 9.0934 25.6764 8.77512C25.7544 8.27498 25.6634 7.80731 25.4749 7.34613C25.0395 6.26789 24.305 5.42999 23.3562 4.77395C22.8362 4.4167 22.2773 4.11791 21.7184 3.82562C21.4584 3.68921 21.2244 3.52033 21.0554 3.28C20.815 2.93575 20.841 2.50055 21.1269 2.17578H21.1334Z" fill="#F0DA00"/>
<path d="M6.54307 14.3094C5.66568 13.426 4.90527 12.4582 4.50882 11.2631C3.96289 9.58724 4.24235 8.03484 5.31472 6.62533C5.89965 5.85888 6.64705 5.26779 7.45945 4.76115C8.33684 4.21553 9.26623 3.75436 10.2411 3.4101C10.5986 3.28019 10.748 3.00739 10.826 2.66963C10.8585 2.51374 10.865 2.35785 10.878 2.18896C11.1185 2.40331 11.1835 2.82552 11.034 3.14379C10.878 3.45557 10.6116 3.65043 10.3191 3.81282C9.92264 4.02717 9.52619 4.22853 9.14274 4.46236C8.30435 4.969 7.55694 5.57957 7.01751 6.41748C6.79653 6.75524 6.62106 7.11249 6.47807 7.48922C6.2506 8.09979 6.2506 8.71686 6.47807 9.32743C6.54307 9.48981 6.59506 9.65869 6.64055 9.82758C6.72504 10.1523 6.69255 10.4706 6.53657 10.7694C6.38059 11.0747 6.3091 11.3995 6.2896 11.7372C6.2571 12.2244 6.2896 12.705 6.36759 13.1857C6.41958 13.543 6.49757 13.9002 6.56906 14.251C6.57556 14.2769 6.58856 14.3029 6.54307 14.3029V14.3094Z" fill="#F0DA00"/>
<path d="M8.1092 19.2461C7.64776 19.1357 7.19932 18.9733 6.76387 18.7784C5.26906 18.1029 4.06021 17.0701 3.10483 15.7451C2.68238 15.167 2.42241 14.5109 2.35742 13.7899C2.32493 13.4652 2.33143 13.1339 2.40292 12.8091C2.5134 12.309 2.46141 11.8153 2.35742 11.3282C2.30543 11.0813 2.24044 10.8345 2.16895 10.5747C2.27943 10.6527 2.35092 10.7371 2.42241 10.8215C2.74737 11.2372 2.94885 11.7049 3.07883 12.218C3.19582 12.6727 3.2998 13.1274 3.48178 13.5561C4.00172 14.7643 4.85311 15.7126 5.87348 16.518C6.10745 16.6999 6.35442 16.8688 6.60789 17.0182C6.75737 17.1026 6.89386 17.2 7.02384 17.3169C7.17982 17.4534 7.29681 17.6092 7.3553 17.8041C7.51778 18.3367 7.79724 18.7979 8.1547 19.2201C8.1547 19.2656 8.1352 19.2591 8.10271 19.2461H8.1092Z" fill="#F0DA00"/>
<path d="M23.8501 19.2197C24.2011 18.8105 24.4805 18.3558 24.6365 17.8362C24.734 17.5049 24.9745 17.2841 25.2539 17.1152C25.9753 16.6865 26.6123 16.1474 27.1972 15.5498C27.8731 14.8548 28.3605 14.0364 28.679 13.127C28.8285 12.6983 28.913 12.2436 29.0494 11.8149C29.1859 11.3862 29.4069 11.003 29.7189 10.6782C29.7449 10.6523 29.7644 10.6198 29.8099 10.6133C29.8359 10.6652 29.7969 10.7107 29.7904 10.7497C29.6539 11.2498 29.5434 11.7565 29.5369 12.2761C29.5369 12.5489 29.6084 12.8087 29.6409 13.075C29.7189 13.861 29.5564 14.595 29.1859 15.2835C28.796 16.011 28.2371 16.6086 27.6391 17.1672C26.5863 18.1545 25.3709 18.8495 23.9801 19.2327C23.9541 19.2392 23.9281 19.2457 23.9021 19.2457C23.8761 19.2587 23.8501 19.2652 23.8501 19.2197Z" fill="#F0DA00"/>
<path d="M28.6012 8.05435C28.5687 8.62594 28.5882 9.17156 28.6532 9.71717C28.6987 10.1199 28.7637 10.5226 28.8222 10.9188C28.9392 11.7178 28.8092 12.4777 28.4843 13.2117C27.7368 14.933 26.4825 16.1866 24.8707 17.096C24.8577 17.1025 24.8447 17.109 24.8252 17.1155C24.8252 17.1025 24.8122 17.0895 24.8187 17.083C25.1437 16.3425 25.3516 15.5695 25.4426 14.7641C25.4621 14.5822 25.5401 14.4264 25.6571 14.2899C25.9041 13.9912 26.203 13.7313 26.463 13.439C27.0284 12.7895 27.4834 12.0815 27.7109 11.2436C27.8473 10.737 27.8928 10.2238 27.9123 9.70418C27.9253 9.30147 28.0098 8.90525 28.1983 8.548C28.2958 8.35963 28.4193 8.19075 28.6077 8.04785L28.6012 8.05435Z" fill="#F0DA00"/>
<path d="M7.20576 17.1348C6.72482 16.875 6.30237 16.5892 5.89942 16.2709C4.70357 15.3421 3.84568 14.1664 3.33874 12.7374C3.11127 12.0944 3.09827 11.4319 3.19576 10.7628C3.31275 9.98988 3.42973 9.22342 3.41673 8.43747C3.41673 8.31406 3.41673 8.19714 3.41673 8.07373C3.48173 8.09322 3.52722 8.15168 3.57272 8.20364C3.88468 8.56089 4.02766 8.98958 4.07315 9.45076C4.12515 9.91193 4.11865 10.3731 4.20314 10.8343C4.35912 11.6982 4.74257 12.4516 5.2885 13.1402C5.54197 13.4649 5.82143 13.7637 6.1204 14.043C6.40636 14.3093 6.56884 14.6211 6.60134 15.0108C6.65983 15.7058 6.8873 16.3619 7.14727 17.0114L7.19926 17.1348H7.20576Z" fill="#F0DA00"/>
<path d="M4.52164 22.2015C4.10569 21.9936 3.81322 21.6818 3.74173 21.2012C3.72873 21.0972 3.72873 20.9933 3.74173 20.8634C3.93671 21.1102 4.11869 21.3376 4.47614 21.3246C4.37215 21.2466 4.27467 21.1817 4.19018 21.1102C3.72224 20.714 3.72224 20.1359 3.90421 19.6682C3.93021 19.6033 3.9692 19.6228 4.0147 19.6423C4.37865 19.7981 4.59963 20.071 4.68412 20.4542C4.74261 20.701 4.73611 20.9478 4.69711 21.2012C4.92459 21.1232 4.97658 20.9089 4.87259 20.5061C5.00907 20.5776 5.10006 20.6685 5.17155 20.7855C5.32754 21.0258 5.36003 21.2921 5.34703 21.5714C5.33403 21.7663 5.29504 21.9611 5.24305 22.1625C5.36653 22.1625 5.41852 22.0845 5.45752 22.0001C5.51601 21.8702 5.50951 21.7273 5.50301 21.5844C5.50301 21.5389 5.50301 21.4935 5.50301 21.4285C5.76948 21.6558 5.89946 21.9481 5.96446 22.2664C6.02945 22.5847 6.00995 22.9095 5.97745 23.2277C6.25042 23.0329 6.19193 22.7406 6.21142 22.4548C6.46489 22.6042 6.60788 22.8315 6.69886 23.0978C6.78985 23.3576 6.80935 23.6304 6.81585 23.9032C6.99133 23.7279 6.93933 23.507 6.95233 23.2797C7.16031 23.3901 7.29679 23.5525 7.38778 23.7539C7.46577 23.9357 7.49826 24.1306 7.49826 24.3255C7.49826 24.6242 7.44627 24.923 7.56976 25.2283C7.08232 25.0399 6.58838 25.0399 6.10094 24.988C5.74998 24.9555 5.41202 24.8776 5.13256 24.6502C4.99608 24.5398 4.89209 24.4034 4.85309 24.202C5.27554 24.3774 5.67849 24.4943 6.11394 24.3319C5.84097 24.241 5.568 24.1566 5.30804 24.0526C4.97008 23.9162 4.63862 23.7539 4.35266 23.5135C4.21617 23.3966 4.09269 23.2667 4.0212 23.0978C3.9952 23.0459 3.9692 22.9939 3.9822 22.9224C4.37215 23.1693 4.74911 23.4031 5.22355 23.3706L5.23655 23.3381C5.19755 23.3252 5.16506 23.3122 5.12606 23.2992C4.63862 23.1303 4.19668 22.8965 3.87172 22.4808C3.68974 22.2469 3.57925 21.9806 3.57275 21.6428C3.82622 21.9546 4.12518 22.156 4.49564 22.2274C4.50864 22.2274 4.52813 22.2339 4.54113 22.2274C4.53463 22.2274 4.52813 22.2144 4.51514 22.2079L4.52164 22.2015Z" fill="#F0DA00"/>
<path d="M27.5286 22.2206C27.8861 22.1427 28.1786 21.9478 28.419 21.649C28.4385 21.74 28.419 21.8114 28.406 21.8829C28.302 22.3376 28.0226 22.6623 27.6456 22.9221C27.3792 23.104 27.0802 23.2274 26.7682 23.3314C26.8917 23.3963 27.1322 23.3638 27.4182 23.2469C27.6261 23.1625 27.8211 23.0456 28.0161 22.9156C28.0356 22.9936 28.0031 23.0456 27.9771 23.0975C27.8731 23.3184 27.7041 23.4743 27.5091 23.6107C27.0542 23.9354 26.5278 24.1173 25.9948 24.2732L25.8453 24.3187C26.3068 24.494 26.7162 24.3641 27.1257 24.2017C27.1322 24.3122 27.0802 24.3901 27.0282 24.4616C26.8267 24.7409 26.5278 24.8578 26.2028 24.9292C25.8648 25.0072 25.5139 24.9942 25.1694 25.0461C24.929 25.0786 24.682 25.1111 24.4545 25.2085C24.448 25.2085 24.435 25.2085 24.4155 25.2085C24.5195 24.9617 24.5 24.7084 24.487 24.4486C24.4675 24.0523 24.5325 23.6756 24.851 23.3898C24.903 23.3443 24.955 23.2989 25.0329 23.2729C25.0524 23.4872 24.994 23.7146 25.1824 23.9159C25.1824 23.3314 25.2604 22.8052 25.7739 22.435C25.8064 22.7208 25.7349 23.0261 26.0273 23.2469C25.9558 22.5649 25.9493 21.9283 26.4823 21.4087C26.5148 21.688 26.3978 21.9998 26.7422 22.1687C26.6058 21.5451 26.4953 20.941 27.1062 20.4994C27.0087 20.7722 27.0087 21.019 27.2947 21.2138C27.2882 21.1424 27.2817 21.0904 27.2752 21.0385C27.2427 20.5708 27.3077 20.1421 27.6781 19.8108C27.7626 19.7394 27.8601 19.6874 27.9576 19.6355C28.0356 19.5965 28.0746 19.6095 28.1136 19.7004C28.354 20.337 28.1721 20.8956 27.6001 21.2593C27.5806 21.2723 27.5546 21.2723 27.5481 21.3048C27.7691 21.3438 27.9121 21.2593 28.2435 20.8826C28.3605 21.2723 28.1201 21.8894 27.4831 22.1947C27.4766 22.2011 27.4701 22.2076 27.4636 22.2206C27.4831 22.2271 27.5091 22.2336 27.5286 22.2206Z" fill="#F0DA00"/>
<path d="M9.2076 20.818C8.19373 20.857 7.26434 20.6621 6.39995 20.1944C5.66554 19.7982 4.96363 19.3435 4.32021 18.8044C3.79378 18.3627 3.37783 17.8431 3.11786 17.2C2.92938 16.7324 2.70841 16.2712 2.43545 15.849C2.31846 15.6671 2.19498 15.4982 2 15.3618C2.07799 15.3489 2.13648 15.3813 2.18848 15.4073C2.48744 15.5502 2.74091 15.7581 2.97488 15.9854C3.12436 16.1348 3.26734 16.2972 3.40382 16.4661C3.98225 17.1871 4.69066 17.7522 5.45757 18.2588C6.0165 18.629 6.60792 18.9408 7.24484 19.1682C7.39433 19.2201 7.53731 19.2916 7.68029 19.3695C7.94026 19.5059 8.16123 19.6878 8.33021 19.9281C8.56418 20.2594 8.83065 20.5647 9.2011 20.8115L9.2076 20.818Z" fill="#F0DA00"/>
<path d="M22.8039 20.8113C23.1158 20.6099 23.3693 20.3696 23.5643 20.0773C23.8567 19.6291 24.2662 19.3498 24.7536 19.1744C25.969 18.7327 27.0153 18.0247 27.9642 17.1609C28.2177 16.927 28.4452 16.6737 28.6596 16.4009C28.9391 16.0566 29.2511 15.7384 29.6345 15.5045C29.7385 15.4396 29.849 15.3811 29.9855 15.3486C29.4395 15.8813 29.1601 16.5568 28.8741 17.2193C28.6011 17.8624 28.1787 18.3885 27.6393 18.8302C26.9049 19.4278 26.1184 19.9539 25.2606 20.3501C24.5067 20.7009 23.6358 20.8503 22.7974 20.8048L22.8039 20.8113Z" fill="#F0DA00"/>
<path d="M10.8002 22.6367C10.5337 22.7277 10.2607 22.7407 9.98776 22.7212C9.26635 22.6692 8.60343 22.4094 7.93401 22.1626C7.50507 22.0002 7.07612 21.8378 6.67967 21.5975C6.27022 21.3506 5.95826 20.9934 5.6528 20.6297C5.34734 20.2724 5.04837 19.9152 4.71691 19.5839C4.71042 19.5839 4.70392 19.5709 4.69092 19.5449C4.96388 19.7008 5.22385 19.8502 5.48382 19.9931C6.30922 20.4478 7.18661 20.7596 8.10949 20.9414C8.39546 20.9999 8.68792 21.0324 8.97388 21.0713C9.10387 21.0908 9.21435 21.1363 9.29234 21.2402C9.38983 21.3636 9.49382 21.4871 9.58481 21.617C9.87727 22.0522 10.2932 22.3509 10.7482 22.5913C10.7677 22.5978 10.7872 22.6043 10.7937 22.6367H10.8002Z" fill="#F0DA00"/>
<path d="M27.3208 19.564C26.8919 19.9862 26.5149 20.4474 26.1315 20.9021C25.7545 21.3438 25.2996 21.675 24.7666 21.8959C24.0777 22.1752 23.3823 22.461 22.6544 22.6363C22.2449 22.7338 21.8225 22.7792 21.4001 22.6948C21.3611 22.6883 21.3156 22.6753 21.2766 22.6623C21.2571 22.6623 21.2376 22.6493 21.2051 22.6363C21.3156 22.5714 21.4261 22.5129 21.5235 22.448C21.8875 22.2271 22.1865 21.9413 22.4399 21.5971C22.8754 21.006 22.7584 21.1164 23.4148 21.0255C24.4677 20.8826 25.4685 20.5513 26.4109 20.0577C26.6904 19.9148 26.9634 19.7589 27.2363 19.5965C27.2558 19.5835 27.2753 19.5575 27.3208 19.564Z" fill="#F0DA00"/>
<path d="M12.0605 27.7678C11.963 27.6444 11.8785 27.521 11.7746 27.4106C11.5471 27.1573 11.2936 26.9364 10.9427 26.878C10.7087 26.839 10.4682 26.8585 10.2278 26.865C9.77281 26.8845 9.32436 26.8975 8.87592 26.8065C8.48597 26.7221 8.16101 26.5077 7.83605 26.2869C7.57608 26.1115 7.32911 25.9231 7.07564 25.7413C6.95866 25.6568 6.83517 25.5854 6.69219 25.5399C6.52321 25.4879 6.34124 25.5074 6.31524 25.5984C6.27624 25.7413 6.38673 25.8257 6.47772 25.9101C6.67269 26.092 6.73769 26.2414 6.71819 26.5012C6.57521 26.4103 6.43872 26.3259 6.30224 26.2349C6.12676 26.118 5.93829 26.0271 5.73031 25.9816C5.66532 25.9686 5.60033 25.9426 5.54184 25.9166C5.28837 25.7997 5.24937 25.5594 5.45085 25.3645C5.56783 25.2541 5.71731 25.2151 5.87329 25.2086C6.37373 25.1827 6.84817 25.2996 7.29662 25.5269C7.67357 25.7218 8.04402 25.9166 8.45347 26.0141C8.87592 26.1115 9.29837 26.1375 9.73381 26.105C10.2602 26.0595 10.7802 26.0855 11.2676 26.3324C11.8006 26.5987 12.106 27.0144 12.093 27.6314C12.093 27.6639 12.093 27.6964 12.0865 27.7224C12.0865 27.7354 12.0735 27.7419 12.067 27.7548L12.0605 27.7678Z" fill="#F0DA00"/>
<path d="M25.2798 26.4947C25.2798 26.2673 25.3253 26.0724 25.5138 25.9295C25.5787 25.8776 25.6372 25.8126 25.6762 25.7347C25.7282 25.6308 25.7022 25.5723 25.5917 25.5398C25.4618 25.5009 25.3448 25.5333 25.2278 25.5788C25.0523 25.6502 24.9028 25.7607 24.7469 25.8711C24.4674 26.0725 24.1814 26.2738 23.8955 26.4687C23.4795 26.748 23.0181 26.8649 22.5241 26.8779C22.1992 26.8844 21.8677 26.8844 21.5428 26.8519C20.9123 26.7934 20.4509 27.0727 20.0934 27.5599C20.0479 27.6249 19.9959 27.6898 19.9375 27.7742C19.892 27.5924 19.9115 27.43 19.9504 27.2676C20.0544 26.8194 20.3469 26.5271 20.7498 26.3323C21.2308 26.0984 21.7377 26.066 22.2577 26.1114C23.0246 26.1764 23.7525 26.053 24.4284 25.6762C24.8378 25.4489 25.2668 25.2735 25.7347 25.2216C25.9232 25.2021 26.1117 25.1956 26.2937 25.2345C26.3911 25.254 26.4821 25.293 26.5536 25.3644C26.7616 25.5593 26.7226 25.8061 26.4626 25.9295C26.4366 25.9425 26.4106 25.9555 26.3846 25.962C25.9947 26.027 25.6827 26.2543 25.3643 26.4622C25.3448 26.4752 25.3253 26.5011 25.2798 26.4947Z" fill="#F0DA00"/>
<path d="M16.8244 22.8316C17.1364 23.2408 17.5783 23.4032 18.0593 23.4876C18.7547 23.6175 19.3981 23.4291 20.035 23.1953C20.347 23.0784 20.6589 22.942 20.9579 22.7926C21.0099 22.7666 21.0554 22.7601 21.1139 22.7731C21.7573 22.929 22.4007 22.955 23.0441 22.7796C23.0636 22.7796 23.0896 22.7796 23.1221 22.7796C23.1091 22.8381 23.0571 22.851 23.0247 22.877C22.2188 23.4032 21.3414 23.7604 20.4185 24.0007C19.866 24.1436 19.3071 24.2346 18.7417 24.1891C18.0398 24.1306 17.4483 23.8643 17.0194 23.2862C16.9219 23.1563 16.8504 23.0134 16.8114 22.8575C16.8049 22.8316 16.8114 22.8251 16.8374 22.8316H16.8244Z" fill="#F0DA00"/>
<path d="M12.0933 29.0021C12.1843 28.8787 12.3077 28.8267 12.4247 28.7747C12.7172 28.6578 13.0161 28.6448 13.3216 28.6838C13.796 28.7423 14.2575 28.8397 14.6994 29.0346C15.1934 29.2554 15.5508 29.6192 15.7913 30.0998C15.8303 30.1778 15.8108 30.2037 15.7393 30.2297C15.1999 30.4376 14.6539 30.4246 14.108 30.2622C13.8545 30.1907 13.6076 30.1063 13.3801 29.9764C13.1266 29.8335 12.9252 29.6386 12.7692 29.3918C12.6197 29.145 12.4182 28.9761 12.0933 28.9956V29.0021Z" fill="#F0DA00"/>
<path d="M19.9052 29.0087C19.6517 28.9892 19.4438 29.0866 19.3268 29.288C18.9238 29.9765 18.2609 30.2103 17.5395 30.3532C17.104 30.4377 16.6881 30.3922 16.2721 30.2428C16.1877 30.2103 16.1747 30.1843 16.2202 30.0999C16.5386 29.4503 17.0715 29.0671 17.754 28.8787C18.1114 28.7813 18.4754 28.6969 18.8458 28.6774C19.2033 28.6579 19.5477 28.7034 19.8467 28.9307C19.8727 28.9502 19.8987 28.9632 19.9052 29.0087Z" fill="#F0DA00"/>
<path d="M16.097 29.8334C16.0645 29.593 16.11 29.3722 16.1945 29.1578C16.5129 28.3459 17.0783 27.7613 17.8972 27.469C18.4887 27.2547 19.0411 27.4366 19.5285 27.8068C19.574 27.8458 19.5805 27.8847 19.574 27.9367C19.535 28.1316 19.3986 28.255 19.2426 28.3524C19.0021 28.4953 18.7356 28.5538 18.4692 28.5927C18.0922 28.6512 17.7218 28.7162 17.3708 28.8591C16.9029 29.0474 16.5389 29.3722 16.1945 29.7294C16.162 29.7619 16.136 29.8009 16.1035 29.8334H16.097Z" fill="#F0DA00"/>
<path d="M15.934 29.8268C15.83 29.7228 15.7325 29.6384 15.6415 29.5475C15.1476 29.0343 14.5367 28.742 13.8413 28.6381C13.5163 28.5861 13.1848 28.5537 12.8794 28.4108C12.7039 28.3263 12.5544 28.2224 12.4699 28.047C12.3984 27.8976 12.4114 27.8587 12.5414 27.7612C13.2043 27.2741 13.9712 27.2611 14.6407 27.7287C15.1801 28.099 15.609 28.5667 15.8235 29.1967C15.895 29.3981 15.9405 29.6059 15.9275 29.8333L15.934 29.8268Z" fill="#F0DA00"/>
<path d="M13.3994 25.0204C13.354 24.9425 13.328 24.8905 13.302 24.845C13.0095 24.3059 12.5481 24.0071 11.9501 23.9097C11.4562 23.8253 10.9558 23.8058 10.4683 23.7213C9.94838 23.6304 9.48043 23.442 9.12298 23.0393C9.03199 22.9354 8.9475 22.8185 8.89551 22.6886C8.91501 22.6691 8.928 22.6756 8.9475 22.6886C9.48693 22.9484 10.0524 22.9809 10.6373 22.8964C10.9558 22.851 11.2677 22.799 11.5927 22.8574C11.7227 22.8769 11.8526 22.9094 11.9696 22.9744C12.613 23.3381 13.1005 23.8383 13.3475 24.5463C13.3734 24.6242 13.3929 24.7021 13.3994 24.7866C13.4059 24.858 13.3994 24.923 13.3994 25.0269V25.0204Z" fill="#F0DA00"/>
<path d="M12.5743 29.8657C12.1779 29.6708 11.7879 29.5409 11.385 29.4695C11.021 29.4045 10.6571 29.4175 10.2866 29.3915C9.68868 29.3461 9.11025 29.2421 8.57082 28.9693C8.27835 28.8199 8.02488 28.6251 7.80391 28.3847C7.50495 28.047 7.21249 27.7027 6.86153 27.4104C6.68605 27.261 6.49108 27.1441 6.22461 27.1116C6.43908 27.0207 6.64056 27.0272 6.84203 27.0662C7.23198 27.1441 7.55694 27.352 7.84941 27.6053C8.03788 27.7742 8.21336 27.9625 8.40834 28.1249C8.86978 28.5082 9.41571 28.69 9.98764 28.8069C10.4881 28.9109 10.995 28.9628 11.489 29.1122C11.8269 29.2097 12.1389 29.3591 12.3793 29.6254C12.4443 29.6968 12.5028 29.7683 12.5678 29.8787L12.5743 29.8657Z" fill="#F0DA00"/>
<path d="M25.7546 27.1053C25.4492 27.1443 25.2152 27.3262 25.0007 27.521C24.7732 27.7289 24.5588 27.9497 24.3638 28.1901C23.8959 28.7746 23.2849 29.1059 22.5635 29.2618C22.1541 29.3527 21.7381 29.3917 21.3222 29.3982C20.7113 29.4047 20.1263 29.5346 19.5674 29.7944C19.5479 29.8074 19.5219 29.8139 19.5024 29.8204C19.5024 29.8204 19.4894 29.8204 19.4829 29.8204C19.5154 29.71 19.6584 29.5476 19.8274 29.4307C20.1458 29.1969 20.5163 29.0864 20.8932 29.0085C21.4262 28.8981 21.9721 28.8331 22.4985 28.6772C23.038 28.5148 23.5124 28.2485 23.9024 27.8328C24.2273 27.4886 24.5978 27.2093 25.0657 27.0728C25.2737 27.0144 25.4817 27.0014 25.6896 27.0599C25.7156 27.0664 25.7416 27.0728 25.7611 27.0988L25.7546 27.1053Z" fill="#F0DA00"/>
<path d="M16.0057 29.0279C15.9472 28.8915 15.8952 28.7746 15.8367 28.6577C15.7133 28.4174 15.5443 28.216 15.3298 28.0536C15.1933 27.9497 15.0568 27.8458 14.9464 27.7159C14.8034 27.547 14.8229 27.4301 15.0114 27.3196C15.6743 26.9364 16.3307 26.9364 16.9936 27.3196C17.1821 27.4301 17.2016 27.5535 17.0586 27.7159C16.9546 27.8328 16.8376 27.9367 16.7141 28.0276C16.3892 28.268 16.1747 28.5798 16.0382 28.9565C16.0382 28.976 16.0252 28.989 16.0122 29.0279H16.0057Z" fill="#F0DA00"/>
<path d="M15.9992 31.9835C15.9277 31.9965 15.9147 31.938 15.8952 31.8991C15.6548 31.4444 15.2973 31.1391 14.7904 31.0222C14.6929 30.9962 14.5889 30.9767 14.4914 30.9832C14.4004 30.9832 14.4069 30.9507 14.4394 30.8858C14.4914 30.7949 14.5694 30.7299 14.6604 30.6844C14.7579 30.6325 14.8619 30.5935 14.9724 30.5935C15.3168 30.587 15.6288 30.4766 15.9212 30.3012C15.9797 30.2622 16.0317 30.2622 16.0902 30.3012C16.3827 30.4831 16.6946 30.5805 17.0391 30.6C17.2536 30.613 17.4615 30.6844 17.5785 30.8988C17.611 30.9572 17.6045 30.9832 17.5265 30.9897C16.8831 31.0222 16.4152 31.3405 16.1162 31.9056C16.0902 31.951 16.0837 32.016 16.0057 31.9965L15.9992 31.9835Z" fill="#F0DA00"/>
<path d="M19.9053 28.5797C20.1652 28.5213 20.4252 28.4628 20.6787 28.3784C21.2051 28.203 21.7055 27.9822 22.128 27.6119C22.31 27.456 22.466 27.2742 22.5829 27.0663C22.6089 27.0208 22.6349 26.9949 22.6934 27.0014C23.0314 27.0273 23.3628 26.9884 23.6618 26.813C23.6618 26.813 23.6748 26.813 23.6943 26.813C23.6033 27.0143 23.4798 27.1832 23.3433 27.3456C22.8364 27.9302 22.18 28.2615 21.4391 28.4433C20.9386 28.5668 20.4252 28.6057 19.9053 28.5797Z" fill="#F0DA00"/>
<path d="M8.3042 26.7809C8.62266 26.9888 8.95412 27.0212 9.29208 27.0082C9.34407 27.0082 9.38956 26.9953 9.42206 27.0537C9.68853 27.5344 10.111 27.8397 10.5919 28.08C11.0469 28.3073 11.5213 28.4567 12.0152 28.5542C12.0347 28.5542 12.0607 28.5671 12.0802 28.5801C11.7553 28.5996 11.4303 28.5801 11.1118 28.5412C10.4164 28.4502 9.76002 28.2424 9.18159 27.8202C8.86963 27.5928 8.60966 27.32 8.40819 26.9823C8.38219 26.9368 8.35619 26.8848 8.3302 26.8394C8.3237 26.8264 8.3172 26.8134 8.3107 26.7744L8.3042 26.7809Z" fill="#F0DA00"/>
<path d="M7.73242 23.1235C8.08338 23.2534 8.28485 23.4743 8.38884 23.7861C8.47333 24.0459 8.49283 24.3122 8.53832 24.5785C8.61631 25.0137 8.74629 25.4424 8.90228 25.8581C8.94127 25.975 8.94127 25.9685 8.81779 25.9555C8.62281 25.9296 8.44083 25.8711 8.25236 25.8126C8.11587 25.7672 8.03788 25.6827 7.98589 25.5593C7.8819 25.3125 7.8819 25.0592 7.9079 24.7994C7.9274 24.5915 7.97939 24.3836 8.01189 24.1758C8.07038 23.7991 7.98589 23.4548 7.73242 23.1235Z" fill="#F0DA00"/>
<path d="M24.2726 23.1235C23.9671 23.5198 23.9281 23.9355 24.0321 24.3836C24.1101 24.7279 24.1556 25.0722 24.0646 25.4229C24.0126 25.6308 23.9086 25.7802 23.6877 25.8386C23.5187 25.8841 23.3497 25.9296 23.1742 25.962C23.0832 25.975 23.0637 25.962 23.0962 25.8711C23.2522 25.4489 23.3822 25.0202 23.4602 24.5785C23.5057 24.3382 23.5252 24.0914 23.5902 23.8575C23.6877 23.5133 23.8891 23.2664 24.2661 23.13L24.2726 23.1235Z" fill="#F0DA00"/>
<path d="M21.5108 20.6098C21.4761 20.6228 21.4414 20.6293 21.4067 20.6293C21.4067 20.5968 21.4393 20.5968 21.4653 20.5903L21.5108 20.6098Z" fill="#FAF5BE"/>
<path d="M27.5292 22.2207C27.5292 22.2207 27.4707 22.2467 27.4316 22.2402C27.4381 22.2077 27.4642 22.2077 27.4902 22.2012L27.5357 22.2207H27.5292Z" fill="#F7EC7E"/>
<path d="M10.3058 19.298C10.3058 19.298 10.3513 19.311 10.3643 19.3305C10.3318 19.35 10.3058 19.3435 10.2798 19.3175L10.2993 19.2915L10.3058 19.298Z" fill="#F8F09B"/>
<path d="M21.7253 19.3242C21.7253 19.3242 21.6798 19.3502 21.6538 19.3437C21.6538 19.3112 21.6863 19.3112 21.7058 19.3047L21.7253 19.3242Z" fill="#F9F099"/>
<path d="M8.10938 19.2462C8.10938 19.2462 8.14839 19.2462 8.1614 19.2202C8.1809 19.2332 8.20691 19.2462 8.18741 19.2657C8.1679 19.2852 8.12888 19.2657 8.10938 19.2462Z" fill="#F2E026"/>
<path d="M10.5918 20.6099L10.6698 20.6359C10.6698 20.6359 10.6178 20.6554 10.5918 20.6359V20.6099Z" fill="#F9EF9A"/>
<path d="M21.8423 17.9147C21.8423 17.9147 21.7903 17.9407 21.7578 17.9277C21.7643 17.8952 21.7968 17.8952 21.8163 17.8887L21.8423 17.9147Z" fill="#F9F2AD"/>
<path d="M4.52146 22.2012C4.52146 22.2012 4.56698 22.2142 4.57998 22.2337C4.54747 22.2532 4.52146 22.2467 4.50195 22.2272L4.52146 22.2012Z" fill="#F7EC7D"/>
<path d="M16.8248 22.8315L16.7988 22.8575C16.7988 22.8575 16.7598 22.8055 16.7858 22.786C16.7923 22.7795 16.8118 22.812 16.8183 22.838L16.8248 22.8315Z" fill="#F3E449"/>
<path d="M10.1953 17.8952L10.2668 17.9147C10.2668 17.9147 10.2668 17.9472 10.2473 17.9407C10.2213 17.9407 10.1953 17.9407 10.1758 17.9147L10.2018 17.8887L10.1953 17.8952Z" fill="#F9F3AF"/>
<path d="M6.54297 14.3093C6.54297 14.3093 6.56248 14.2768 6.56898 14.2573C6.58849 14.2833 6.60149 14.3158 6.58198 14.3353C6.56898 14.3483 6.54947 14.3223 6.54297 14.3028V14.3093Z" fill="#F4E448"/>
<path d="M23.8502 19.2199C23.8502 19.2199 23.8827 19.2459 23.9022 19.2459C23.8762 19.2654 23.8437 19.2849 23.8177 19.2524C23.8112 19.2394 23.8307 19.2264 23.8502 19.2134V19.2199Z" fill="#F2DF23"/>
<path d="M16.0057 6.11875C15.1803 6.11875 14.5109 5.44972 14.5044 4.6248C14.5044 3.79989 15.1738 3.13086 15.9992 3.13086C16.8246 3.13086 17.494 3.79989 17.5005 4.6248C17.5005 5.44972 16.8311 6.11875 16.0057 6.11875Z" fill="#FEFEFE"/>
<path d="M19.0731 4.63103L17.6953 4.9558C17.7278 4.72846 17.7343 4.51411 17.6953 4.28027L19.0796 4.61154V4.63103H19.0731Z" fill="#FEFEFE"/>
<path d="M17.5135 7.28137L16.5386 6.26159C16.753 6.18365 16.948 6.07972 17.1235 5.92383L17.5329 7.26188L17.5135 7.27487V7.28137Z" fill="#FEFEFE"/>
<path d="M17.6303 5.18994L18.6312 6.13827C18.5987 6.17075 18.5727 6.15776 18.5532 6.15126C18.1633 6.03435 17.7798 5.91743 17.3899 5.80051C17.2989 5.77453 17.2989 5.74855 17.3574 5.68359C17.4744 5.54069 17.5588 5.37831 17.6303 5.18994Z" fill="#FEFEFE"/>
<path d="M17.2861 3.48177L18.6835 3.05957L17.6306 4.05337C17.5461 3.84552 17.4421 3.65715 17.2861 3.48177Z" fill="#FEFEFE"/>
<path d="M15.447 2.99424C15.2325 3.07868 15.0441 3.17611 14.8686 3.332L14.4526 1.99395L14.4721 1.98096L15.4405 2.99424H15.447Z" fill="#FEFEFE"/>
<path d="M12.9058 4.62487L14.3161 4.28711C14.2901 4.49496 14.2836 4.69632 14.3096 4.89768C14.3226 4.97562 14.2576 4.93665 14.2316 4.93016C13.8546 4.84572 13.4842 4.75478 13.1072 4.67034C13.0487 4.65735 12.9968 4.64436 12.9058 4.62487Z" fill="#FEFEFE"/>
<path d="M13.3604 6.14492L14.3742 5.18359C14.4522 5.39145 14.5562 5.57981 14.7057 5.75519L13.3734 6.1709L13.3604 6.14492Z" fill="#FEFEFE"/>
<path d="M14.3811 4.05942L13.3672 3.1046V3.07861L14.706 3.49432C14.563 3.6697 14.4526 3.84507 14.3811 4.05942Z" fill="#FEFEFE"/>
<path d="M14.4458 7.2487L14.8682 5.91064C15.0372 6.04705 15.2127 6.15747 15.4337 6.23542L14.4718 7.2552L14.4523 7.2422L14.4458 7.2487Z" fill="#FEFEFE"/>
<path d="M16.3307 2.93581C16.1033 2.89684 15.8953 2.89684 15.6743 2.93581L15.9863 1.57178H16.0123L16.3307 2.93581Z" fill="#FEFEFE"/>
<path d="M16.3047 6.31362L15.9797 7.68416H15.9602L15.6548 6.30713C15.8758 6.33311 16.0837 6.35909 16.3112 6.30713L16.3047 6.31362Z" fill="#FEFEFE"/>
<path d="M17.5265 1.97442L17.117 3.31247C16.9481 3.17607 16.7726 3.07214 16.5581 2.9942L17.507 1.96143L17.5265 1.97442Z" fill="#FEFEFE"/>
<path d="M21.6991 23.7928C20.9907 24.1176 20.2432 24.3059 19.4828 24.4423C19.4048 24.4553 19.3399 24.4813 19.2879 24.5462C19.1254 24.7281 18.9239 24.845 18.6899 24.884C18.131 24.9685 17.6696 24.7736 17.2926 24.3644C16.9482 23.9941 16.7727 23.5265 16.6362 23.0458C16.4672 22.4612 16.3892 21.8636 16.3372 21.2596C16.2982 20.8439 16.2852 20.4282 16.3437 20.0124C16.4217 19.4409 16.6167 18.9017 16.8637 18.3821C17.1236 17.8365 17.3576 17.2844 17.4681 16.6803C17.5721 16.1022 17.4616 15.5956 16.9936 15.1993C16.8572 15.0824 16.7012 14.9915 16.5452 14.9006C16.4022 14.8161 16.2787 14.7122 16.2137 14.5498C16.1813 14.4589 16.1683 14.3614 16.2527 14.29C16.3372 14.225 16.4217 14.264 16.4997 14.316C16.6037 14.3874 16.6752 14.4913 16.7467 14.5953C16.9027 14.8031 17.0651 15.011 17.2731 15.1734C17.6826 15.4851 18.157 15.5176 18.6444 15.4722C18.8719 15.4527 19.0669 15.3617 19.2099 15.1799C19.4243 14.9006 19.4763 14.5758 19.4828 14.2315C19.4243 14.2575 19.3983 14.2965 19.3659 14.329C18.9109 14.7901 18.3325 14.8681 17.7736 14.5563C17.6046 14.4654 17.4486 14.3484 17.2991 14.2315C17.0521 14.0367 16.8182 13.8353 16.5517 13.6664C16.0968 13.3741 15.6288 13.3611 15.1544 13.6145C15.0829 13.6534 15.0114 13.6924 14.9334 13.7379C14.8814 13.543 14.8749 13.3546 14.9204 13.1598C14.9659 12.9649 15.0894 12.848 15.2844 12.809C15.4143 12.783 15.5508 12.783 15.6808 12.809C16.1488 12.887 16.5452 13.1143 16.9222 13.3871C17.5266 13.8223 18.2155 13.9587 18.9239 13.7833C19.5348 13.6275 19.8793 13.1468 20.0678 12.5622C20.1133 12.4258 20.1003 12.2894 20.0353 12.1465C19.8728 12.2439 19.7103 12.3284 19.5413 12.4063C18.8459 12.7441 18.1635 12.7311 17.4876 12.3414C17.1366 12.14 16.8117 11.8997 16.5062 11.6204C16.3567 11.484 16.1813 11.4125 15.9798 11.393C15.5573 11.3541 15.1739 11.4645 14.8164 11.6593C14.6279 11.7633 14.4525 11.8867 14.3615 12.0815C14.0755 12.7181 14.0625 13.3546 14.3745 13.9847C14.4265 14.0886 14.4005 14.0951 14.303 14.1081C13.952 14.1601 13.6336 14.2835 13.3541 14.5108C13.0876 14.7252 12.9187 15.0045 12.8472 15.3487C13.1201 15.2318 13.3801 15.1604 13.6596 15.1214C14.2705 15.037 14.7839 15.3682 14.9399 15.9723C14.9789 16.1152 15.0049 16.2646 15.0244 16.4075C15.0764 16.7582 15.2584 16.9856 15.6093 17.07C15.7133 17.096 15.8108 17.135 15.9018 17.1934C16.1098 17.3233 16.1878 17.5117 16.1358 17.752C16.1033 17.9014 16.0448 18.0313 15.9668 18.1613C15.4858 18.9667 15.0049 19.7786 14.5305 20.584C14.2705 21.0257 13.9715 21.4414 13.7701 21.9156C13.4841 22.5651 13.3346 23.2472 13.4451 23.9552C13.6271 25.1763 14.407 26.3325 15.8823 26.7092C16.9547 26.982 18.014 26.9171 19.0474 26.5598C20.3277 26.1246 21.3286 25.3387 21.972 24.137C22.089 23.9227 22.1865 23.7018 22.271 23.4485C22.076 23.5914 21.8875 23.6953 21.6861 23.7863L21.6991 23.7928ZM16.0968 15.7385C15.9668 15.6865 15.8953 15.5826 15.8628 15.4527C15.8108 15.2513 15.7263 15.0759 15.5313 14.972C15.8693 14.9655 16.1618 15.0629 16.4022 15.2968C16.5257 15.4137 16.5582 15.5436 16.4867 15.6475C16.4152 15.7579 16.2332 15.7969 16.0968 15.745V15.7385Z" fill="#F0DA00"/>
<path d="M10.2409 17.9401L10.2604 17.9141L10.3124 17.9466C10.3124 17.9466 10.2604 17.9596 10.2344 17.9401H10.2409Z" fill="#F4E549"/>
</svg>
