<svg width="28" height="32" viewBox="0 0 28 32" fill="none" xmlns="http://www.w3.org/2000/svg">
<g id="Frame" clip-path="url(#clip0_204_4208)">
<path id="Vector" d="M9.38588 4.63365C9.37938 2.08612 11.446 0.00651392 14 1.5143e-05C16.554 -0.00648364 18.6466 2.07963 18.6401 4.63365C18.6336 7.19417 16.5735 9.25428 14.0195 9.26078C11.4655 9.26078 9.39238 7.19417 9.38588 4.63365Z" fill="#10009B"/>
<path id="Vector_2" d="M19.8489 17.9237C20.3883 17.7937 20.8562 17.5207 21.2851 17.1698C22.039 16.5524 22.5979 15.7856 23.0658 14.9472C23.0853 14.9147 23.0918 14.8692 23.1438 14.8367C23.1633 15.2267 23.1048 15.5971 22.9943 15.9545C22.7539 16.7149 22.2925 17.3323 21.7271 17.8782C21.1292 18.4566 20.4468 18.9245 19.7124 19.3014C19.7124 19.3079 19.6929 19.3144 19.6994 19.3274C19.7059 19.3404 19.7254 19.3274 19.7384 19.3274C20.1479 19.2234 20.4988 19.0155 20.8432 18.788C21.3826 18.4306 21.87 18.0082 22.3314 17.5597C22.3639 17.5272 22.3899 17.4882 22.4289 17.4298C22.4614 17.5077 22.4484 17.5467 22.4354 17.5922C22.3054 18.1381 22.026 18.6125 21.6556 19.0285C21.0577 19.6978 20.3298 20.1852 19.5305 20.5687C19.511 20.5752 19.498 20.5882 19.4785 20.5947C19.4785 20.6467 19.5045 20.6207 19.524 20.6142C19.9334 20.5102 20.2973 20.3152 20.6548 20.0943C20.9537 19.9123 21.2332 19.7108 21.5061 19.4964C21.5256 19.4834 21.5451 19.4639 21.5906 19.4379C21.4931 19.7173 21.3631 19.9513 21.2072 20.1722C20.7392 20.8156 20.1089 21.264 19.407 21.615C19.212 21.7125 19.0106 21.7969 18.8026 21.8814C19.0951 21.9269 19.381 21.8164 20.3688 21.2835C20.3818 21.3355 20.3428 21.3615 20.3168 21.3875C20.0179 21.7644 19.6604 22.0894 19.251 22.3428C18.6011 22.7458 17.9123 23.0707 17.1779 23.2787C16.7555 23.4021 16.3331 23.3956 15.9041 23.2787C15.2348 23.0902 14.8059 22.6743 14.6369 21.9919C14.5459 21.6215 14.5134 21.2445 14.5654 20.8676C14.5654 20.8481 14.5654 20.8221 14.5979 20.8026C14.6759 21.0691 14.7864 21.3095 14.9488 21.5305C15.2023 21.8749 15.5077 22.1544 15.9366 22.2584C16.0536 22.2843 16.1771 22.2908 16.2941 22.2714C16.4955 22.2454 16.6125 22.1154 16.6255 21.9139C16.645 21.693 16.58 21.4785 16.515 21.2705C16.4111 20.9521 16.2876 20.6467 16.2031 20.3282C15.9496 19.3664 16.2876 18.5021 17.1194 17.9497C17.4314 17.7417 17.7628 17.5857 18.1072 17.4363C19.5565 16.8189 20.6613 15.7921 21.5776 14.5378C22.2145 13.667 22.7344 12.7376 23.0268 11.6848C23.0593 11.5679 23.0853 11.4509 23.1113 11.3339C23.1373 11.2169 23.1503 11.0999 23.1763 10.97C23.2153 10.9895 23.2218 11.035 23.2348 11.0675C23.4687 11.7043 23.5272 12.3672 23.4557 13.0366C23.2543 14.7978 22.3249 16.1235 20.9602 17.1893C20.6028 17.4688 20.2193 17.6962 19.8164 17.8977C19.8164 17.9042 19.7969 17.9107 19.8034 17.9237C19.8099 17.9302 19.8294 17.9237 19.8424 17.9237H19.8489Z" fill="#F0DA00"/>
<path id="Vector_3" d="M8.31357 19.3079C7.35175 18.8075 6.48091 18.1771 5.79204 17.3322C5.33713 16.7734 5.01869 16.156 4.90821 15.4346C4.88221 15.2396 4.86272 15.0447 4.87571 14.8432C4.92121 14.8692 4.9277 14.9082 4.9472 14.9407C5.41511 15.779 5.96751 16.5459 6.71487 17.1568C7.14379 17.5142 7.6182 17.7937 8.1706 17.9236C8.19659 17.9301 8.21609 17.9236 8.24208 17.9366C8.22259 17.9366 8.20309 17.9236 8.19009 17.9041C7.02031 17.3192 6.06499 16.4874 5.36962 15.3761C4.84972 14.5378 4.53128 13.6344 4.52478 12.6401C4.52478 12.1072 4.58327 11.5808 4.77173 11.0804C4.78473 11.0479 4.79773 11.0154 4.81723 10.9634C4.85622 11.1584 4.88221 11.3339 4.92121 11.5028C5.14216 12.4192 5.54509 13.2575 6.06499 14.0374C6.64338 14.9082 7.29976 15.7075 8.12511 16.3509C8.71649 16.8123 9.36637 17.1698 10.0357 17.5077C10.3932 17.6897 10.7506 17.8716 11.0691 18.1186C11.472 18.4305 11.6539 18.853 11.6994 19.3469C11.7384 19.8018 11.6409 20.2307 11.433 20.6271C11.0496 21.3615 10.9781 22.1413 10.9976 22.9472C10.9976 23.1162 11.0431 23.2786 11.1015 23.4671C11.0171 23.3891 10.9456 23.3306 10.8806 23.2721C10.4972 22.9472 10.0552 22.7457 9.56134 22.6612C9.18441 22.5963 8.81398 22.4923 8.48254 22.2843C8.11211 22.0504 7.85216 21.7189 7.6377 21.303C7.90415 21.4655 8.1381 21.6084 8.39156 21.7189C8.64501 21.8229 8.90496 21.9139 9.2104 21.9074C8.00163 21.394 6.94233 20.7441 6.43542 19.4638C6.60439 19.5873 6.77336 19.7173 6.94233 19.8408C7.42324 20.1722 7.92364 20.4712 8.49554 20.6336C8.52153 20.6401 8.54753 20.6466 8.57352 20.6466C8.58652 20.6466 8.59302 20.6531 8.60601 20.6466C8.59302 20.6466 8.58652 20.6271 8.57352 20.6206C7.84566 20.2827 7.16978 19.8603 6.59139 19.2884C6.10398 18.8075 5.72706 18.2616 5.56459 17.5792C5.55809 17.5402 5.54509 17.5012 5.55159 17.4492C5.68156 17.5727 5.80504 17.6897 5.92852 17.8002C6.46142 18.2941 7.02681 18.749 7.67019 19.0934C7.85866 19.1909 8.05362 19.2819 8.26808 19.3274C8.28108 19.3274 8.29407 19.3404 8.30707 19.3274C8.31357 19.3209 8.30057 19.3144 8.29407 19.3014L8.31357 19.3079Z" fill="#F0DA00"/>
<path id="Vector_4" d="M19.1405 2.17706C19.1535 2.41102 19.1665 2.61898 19.2315 2.82694C19.3225 3.11289 19.4979 3.30135 19.7904 3.41183C21.1421 3.91224 22.4094 4.56212 23.5467 5.45895C24.3785 6.11532 25.0544 6.91467 25.4443 7.90899C25.9577 9.21524 25.8797 10.5085 25.3078 11.7758C24.8724 12.7506 24.2226 13.5759 23.4687 14.3233C23.4622 14.3298 23.4492 14.3363 23.4362 14.3493C23.4947 14.0633 23.5597 13.7839 23.6052 13.4979C23.7156 12.8611 23.7806 12.2177 23.7091 11.5678C23.6832 11.3078 23.6182 11.0544 23.4947 10.8204C23.2997 10.4565 23.2867 10.0796 23.4167 9.68965C23.5142 9.39071 23.6312 9.09827 23.6832 8.77982C23.7611 8.27942 23.6702 7.81151 23.4817 7.35009C23.0463 6.2713 22.3119 5.43295 21.3631 4.77658C20.8432 4.41914 20.2843 4.1202 19.7254 3.82775C19.4654 3.69128 19.2315 3.52231 19.0625 3.28186C18.8221 2.93742 18.8481 2.502 19.134 2.17706H19.1405Z" fill="#F0DA00"/>
<path id="Vector_5" d="M4.5508 14.3168C3.67346 13.433 2.9131 12.4646 2.51668 11.2689C1.97078 9.59218 2.25023 8.03897 3.32253 6.62873C3.90742 5.86188 4.65478 5.27049 5.46712 4.76358C6.34446 4.21768 7.27378 3.75627 8.2486 3.41183C8.60603 3.28186 8.75551 3.00891 8.83349 2.67097C8.86599 2.515 8.87248 2.35903 8.88548 2.19006C9.12594 2.40452 9.19092 2.82694 9.04145 3.14538C8.88548 3.45733 8.61903 3.65229 8.32659 3.81476C7.93016 4.02922 7.53374 4.23068 7.15031 4.46464C6.31196 4.97154 5.5646 5.58243 5.02521 6.42077C4.80425 6.75871 4.62878 7.11614 4.48581 7.49307C4.25835 8.10395 4.25835 8.72134 4.48581 9.33222C4.5508 9.49469 4.60279 9.66366 4.64828 9.83263C4.73276 10.1576 4.70027 10.476 4.5443 10.775C4.38833 11.0804 4.31684 11.4053 4.29734 11.7433C4.26485 12.2307 4.29734 12.7116 4.37533 13.1925C4.42732 13.5499 4.5053 13.9074 4.57679 14.2583C4.58329 14.2843 4.59629 14.3103 4.5508 14.3103V14.3168Z" fill="#F0DA00"/>
<path id="Vector_6" d="M6.11695 19.2559C5.65554 19.1454 5.20712 18.9829 4.7717 18.788C3.27698 18.1121 2.06821 17.0788 1.11289 15.753C0.690467 15.1747 0.430515 14.5183 0.365528 13.7969C0.333034 13.472 0.339533 13.1405 0.411019 12.8156C0.521498 12.3152 0.469508 11.8213 0.365528 11.3339C0.313537 11.0869 0.24855 10.84 0.177063 10.58C0.287542 10.658 0.359029 10.7425 0.430515 10.827C0.755455 11.2429 0.956917 11.7108 1.08689 12.2242C1.20387 12.6791 1.30785 13.134 1.48982 13.563C2.00972 14.7717 2.86106 15.7206 3.88137 16.5264C4.11532 16.7084 4.36228 16.8773 4.61573 17.0268C4.7652 17.1113 4.90168 17.2088 5.03165 17.3258C5.18762 17.4622 5.3046 17.6182 5.36309 17.8132C5.52556 18.3461 5.80501 18.8075 6.16244 19.2299C6.16244 19.2754 6.14294 19.2689 6.11045 19.2559H6.11695Z" fill="#F0DA00"/>
<path id="Vector_7" d="M21.857 19.2299C22.2079 18.8205 22.4874 18.3656 22.6433 17.8457C22.7408 17.5142 22.9813 17.2933 23.2607 17.1243C23.9821 16.6954 24.619 16.156 25.2039 15.5581C25.8797 14.8627 26.3671 14.0439 26.6856 13.134C26.8351 12.7051 26.9195 12.2502 27.056 11.8213C27.1925 11.3924 27.4135 11.0089 27.7254 10.684C27.7514 10.658 27.7709 10.6255 27.8164 10.619C27.8424 10.671 27.8034 10.7165 27.7969 10.7555C27.6604 11.2559 27.5499 11.7628 27.5434 12.2827C27.5434 12.5557 27.6149 12.8156 27.6474 13.0821C27.7254 13.8684 27.5629 14.6028 27.1925 15.2916C26.8026 16.0195 26.2437 16.6174 25.6458 17.1763C24.593 18.1641 23.3777 18.8595 21.987 19.2429C21.961 19.2494 21.935 19.2559 21.909 19.2559C21.883 19.2689 21.857 19.2754 21.857 19.2299Z" fill="#F0DA00"/>
<path id="Vector_8" d="M26.6077 8.0585C26.5752 8.63039 26.5947 9.17629 26.6596 9.72219C26.7051 10.1251 26.7701 10.528 26.8286 10.9245C26.9456 11.7238 26.8156 12.4842 26.4907 13.2185C25.7433 14.9407 24.4891 16.195 22.8774 17.1048C22.8644 17.1113 22.8514 17.1178 22.8319 17.1243C22.8319 17.1113 22.8189 17.0983 22.8254 17.0918C23.1503 16.3509 23.3583 15.5776 23.4492 14.7717C23.4687 14.5898 23.5467 14.4338 23.6637 14.2973C23.9107 13.9984 24.2096 13.7384 24.4696 13.446C25.035 12.7961 25.4899 12.0877 25.7173 11.2494C25.8538 10.7425 25.8993 10.2291 25.9188 9.70919C25.9318 9.30627 26.0163 8.90984 26.2047 8.55241C26.3022 8.36394 26.4257 8.19498 26.6142 8.052L26.6077 8.0585Z" fill="#F0DA00"/>
<path id="Vector_9" d="M5.21362 17.1438C4.73271 16.8839 4.31029 16.5979 3.90737 16.2795C2.71159 15.3501 1.85375 14.1739 1.34685 12.7441C1.11939 12.1007 1.10639 11.4379 1.20388 10.7685C1.32085 9.99514 1.43783 9.22829 1.42483 8.44193C1.42483 8.31846 1.42483 8.20148 1.42483 8.078C1.48982 8.0975 1.53531 8.15599 1.58081 8.20798C1.89275 8.56541 2.03572 8.99433 2.08121 9.45574C2.1332 9.91716 2.1267 10.3786 2.21119 10.84C2.36716 11.7043 2.75059 12.4582 3.29648 13.1471C3.54994 13.472 3.82938 13.7709 4.12833 14.0504C4.41427 14.3168 4.57674 14.6288 4.60924 15.0187C4.66773 15.7141 4.89518 16.3704 5.15514 17.0203L5.20713 17.1438H5.21362Z" fill="#F0DA00"/>
<path id="Vector_10" d="M2.52963 22.2129C2.11371 22.0049 1.82127 21.693 1.74978 21.212C1.73678 21.1081 1.73678 21.0041 1.74978 20.8741C1.94474 21.1211 2.12671 21.3485 2.48414 21.3355C2.38016 21.2575 2.28268 21.1925 2.19819 21.1211C1.73028 20.7246 1.73028 20.1462 1.91225 19.6783C1.93824 19.6133 1.97724 19.6328 2.02273 19.6523C2.38666 19.8083 2.60762 20.0813 2.6921 20.4647C2.75059 20.7116 2.74409 20.9586 2.7051 21.212C2.93256 21.1341 2.98455 20.9196 2.88057 20.5167C3.01704 20.5882 3.10802 20.6791 3.17951 20.7961C3.33548 21.0366 3.36798 21.303 3.35498 21.5825C3.34198 21.7774 3.30299 21.9724 3.251 22.1739C3.37447 22.1739 3.42646 22.0959 3.46546 22.0114C3.52395 21.8814 3.51745 21.7384 3.51095 21.5955C3.51095 21.55 3.51095 21.5045 3.51095 21.4395C3.7774 21.667 3.90737 21.9594 3.97236 22.2778C4.03735 22.5963 4.01785 22.9212 3.98536 23.2397C4.25831 23.0447 4.19982 22.7523 4.21932 22.4663C4.47277 22.6158 4.61574 22.8432 4.70672 23.1097C4.79771 23.3696 4.8172 23.6426 4.8237 23.9155C4.99917 23.7401 4.94718 23.5191 4.96018 23.2917C5.16814 23.4021 5.30461 23.5646 5.3956 23.7661C5.47358 23.948 5.50607 24.143 5.50607 24.338C5.50607 24.6369 5.45408 24.9358 5.57756 25.2413C5.09015 25.0528 4.59625 25.0528 4.10884 25.0008C3.7579 24.9683 3.41997 24.8904 3.14052 24.6629C3.00404 24.5524 2.90006 24.4159 2.86107 24.2145C3.28349 24.3899 3.68642 24.5069 4.12183 24.3445C3.84889 24.2535 3.57594 24.169 3.31599 24.065C2.97805 23.9285 2.64661 23.7661 2.36066 23.5256C2.22419 23.4086 2.10071 23.2787 2.02923 23.1097C2.00323 23.0577 1.97724 23.0057 1.99023 22.9342C2.38016 23.1812 2.75709 23.4151 3.2315 23.3826L3.2445 23.3501C3.20551 23.3371 3.17301 23.3241 3.13402 23.3112C2.64661 23.1422 2.20469 22.9082 1.87975 22.4923C1.69779 22.2583 1.58731 21.9919 1.58081 21.654C1.83426 21.9659 2.13321 22.1674 2.50364 22.2389C2.51663 22.2389 2.53613 22.2454 2.54913 22.2389C2.54263 22.2389 2.53613 22.2259 2.52313 22.2194L2.52963 22.2129Z" fill="#F0DA00"/>
<path id="Vector_11" d="M25.5353 22.2323C25.8928 22.1543 26.1852 21.9594 26.4257 21.6604C26.4452 21.7514 26.4257 21.8229 26.4127 21.8944C26.3087 22.3493 26.0292 22.6742 25.6523 22.9342C25.3859 23.1161 25.0869 23.2396 24.775 23.3436C24.8985 23.4086 25.1389 23.3761 25.4249 23.2591C25.6328 23.1746 25.8278 23.0576 26.0227 22.9277C26.0422 23.0057 26.0098 23.0576 25.9838 23.1096C25.8798 23.3306 25.7108 23.4866 25.5158 23.623C25.0609 23.948 24.5345 24.1299 24.0016 24.2859L23.8522 24.3314C24.3136 24.5069 24.723 24.3769 25.1324 24.2144C25.1389 24.3249 25.0869 24.4029 25.0349 24.4744C24.8335 24.7538 24.5345 24.8708 24.2096 24.9423C23.8717 25.0203 23.5207 25.0073 23.1763 25.0593C22.9358 25.0918 22.6889 25.1243 22.4614 25.2217C22.4549 25.2217 22.4419 25.2217 22.4224 25.2217C22.5264 24.9748 22.5069 24.7213 22.4939 24.4614C22.4744 24.065 22.5394 23.688 22.8578 23.4021C22.9098 23.3566 22.9618 23.3111 23.0398 23.2851C23.0593 23.4996 23.0008 23.727 23.1893 23.9285C23.1893 23.3436 23.2673 22.8172 23.7807 22.4468C23.8132 22.7327 23.7417 23.0382 24.0341 23.2591C23.9626 22.5767 23.9561 21.9399 24.489 21.42C24.5215 21.6994 24.4046 22.0113 24.749 22.1803C24.6125 21.5564 24.502 20.952 25.1129 20.5101C25.0154 20.7831 25.0154 21.03 25.3014 21.225C25.2949 21.1535 25.2884 21.1015 25.2819 21.0495C25.2494 20.5816 25.3144 20.1527 25.6848 19.8213C25.7693 19.7498 25.8668 19.6978 25.9643 19.6458C26.0422 19.6068 26.0812 19.6198 26.1202 19.7108C26.3607 20.3477 26.1787 20.9066 25.6068 21.2705C25.5873 21.2835 25.5613 21.2835 25.5548 21.316C25.7758 21.355 25.9188 21.2705 26.2502 20.8936C26.3672 21.2835 26.1267 21.9009 25.4898 22.2063C25.4833 22.2128 25.4769 22.2193 25.4704 22.2323C25.4898 22.2388 25.5158 22.2453 25.5353 22.2323Z" fill="#F0DA00"/>
<path id="Vector_12" d="M7.21527 20.8286C6.20146 20.8676 5.27213 20.6726 4.40779 20.2047C3.67343 19.8083 2.97156 19.3534 2.32818 18.814C1.80178 18.372 1.38586 17.8521 1.12591 17.2088C0.937443 16.7408 0.716485 16.2794 0.443536 15.857C0.326558 15.675 0.203081 15.5061 0.00811768 15.3696C0.0861031 15.3566 0.144592 15.3891 0.196582 15.4151C0.495526 15.5581 0.748979 15.766 0.982935 15.9935C1.13241 16.143 1.27538 16.3054 1.41185 16.4744C1.99025 17.1958 2.69861 17.7611 3.46547 18.2681C4.02436 18.6385 4.61575 18.9504 5.25263 19.1779C5.40211 19.2299 5.54508 19.3014 5.68805 19.3793C5.948 19.5158 6.16896 19.6978 6.33793 19.9382C6.57189 20.2697 6.83834 20.5751 7.20877 20.8221L7.21527 20.8286Z" fill="#F0DA00"/>
<path id="Vector_13" d="M20.8107 20.8221C21.1226 20.6206 21.3761 20.3802 21.5711 20.0877C21.8635 19.6393 22.2729 19.3599 22.7603 19.1844C23.9756 18.7425 25.0219 18.0341 25.9707 17.1698C26.2242 16.9358 26.4516 16.6824 26.6661 16.4094C26.9455 16.065 27.2575 15.7466 27.6409 15.5126C27.7449 15.4476 27.8554 15.3891 27.9919 15.3566C27.446 15.8895 27.1665 16.5654 26.8806 17.2283C26.6076 17.8717 26.1852 18.3981 25.6458 18.84C24.9114 19.4379 24.1251 19.9643 23.2672 20.3607C22.5134 20.7116 21.6425 20.8611 20.8042 20.8156L20.8107 20.8221Z" fill="#F0DA00"/>
<path id="Vector_14" d="M8.80746 22.6482C8.54101 22.7392 8.26806 22.7522 7.99511 22.7327C7.27375 22.6807 6.61087 22.4208 5.9415 22.1738C5.51258 22.0113 5.08366 21.8489 4.68724 21.6084C4.27781 21.3615 3.96587 21.004 3.66043 20.6401C3.35499 20.2827 3.05604 19.9252 2.7246 19.5938C2.7181 19.5938 2.71161 19.5808 2.69861 19.5548C2.97156 19.7108 3.23151 19.8603 3.49146 20.0032C4.31681 20.4581 5.19414 20.7701 6.11697 20.952C6.40291 21.0105 6.69536 21.043 6.98131 21.082C7.11128 21.1015 7.22176 21.147 7.29975 21.251C7.39723 21.3745 7.50121 21.4979 7.59219 21.6279C7.88464 22.0633 8.30056 22.3623 8.75547 22.6027C8.77497 22.6092 8.79447 22.6157 8.80096 22.6482H8.80746Z" fill="#F0DA00"/>
<path id="Vector_15" d="M25.3274 19.5743C24.8985 19.9967 24.5215 20.4582 24.1381 20.9131C23.7612 21.355 23.3063 21.6864 22.7734 21.9074C22.0845 22.1868 21.3891 22.4728 20.6613 22.6483C20.2518 22.7457 19.8294 22.7912 19.407 22.7067C19.368 22.7002 19.3225 22.6872 19.2835 22.6742C19.264 22.6742 19.2445 22.6612 19.212 22.6483C19.3225 22.5833 19.433 22.5248 19.5305 22.4598C19.8944 22.2388 20.1934 21.9529 20.4468 21.6084C20.8822 21.0171 20.7652 21.1275 21.4216 21.0366C22.4744 20.8936 23.4752 20.5621 24.4176 20.0682C24.697 19.9253 24.97 19.7693 25.2429 19.6068C25.2624 19.5938 25.2819 19.5678 25.3274 19.5743Z" fill="#F0DA00"/>
<path id="Vector_16" d="M10.0682 27.7823C9.97074 27.6588 9.88625 27.5353 9.78227 27.4249C9.55481 27.1714 9.30136 26.9504 8.95043 26.892C8.71647 26.853 8.47602 26.8725 8.23556 26.879C7.78065 26.8985 7.33223 26.9115 6.88381 26.8205C6.49389 26.736 6.16895 26.5215 5.84401 26.3006C5.58406 26.1251 5.3371 25.9366 5.08365 25.7547C4.96667 25.6702 4.8432 25.5987 4.70022 25.5532C4.53126 25.5012 4.34929 25.5207 4.32329 25.6117C4.2843 25.7547 4.39478 25.8392 4.48576 25.9236C4.68073 26.1056 4.74572 26.2551 4.72622 26.515C4.58325 26.424 4.44677 26.3396 4.3103 26.2486C4.13483 26.1316 3.94637 26.0406 3.7384 25.9951C3.67342 25.9821 3.60843 25.9561 3.54994 25.9301C3.29649 25.8132 3.25749 25.5727 3.45896 25.3777C3.57594 25.2673 3.72541 25.2283 3.88138 25.2218C4.38178 25.1958 4.85619 25.3128 5.30461 25.5402C5.68154 25.7352 6.05197 25.9301 6.46139 26.0276C6.88381 26.1251 7.30624 26.1511 7.74165 26.1186C8.26805 26.0731 8.78796 26.0991 9.27537 26.3461C9.80827 26.6125 10.1137 27.0284 10.1007 27.6458C10.1007 27.6783 10.1007 27.7108 10.0942 27.7368C10.0942 27.7498 10.0812 27.7563 10.0747 27.7693L10.0682 27.7823Z" fill="#F0DA00"/>
<path id="Vector_17" d="M23.2868 26.5085C23.2868 26.281 23.3323 26.0861 23.5207 25.9431C23.5857 25.8911 23.6442 25.8261 23.6832 25.7481C23.7352 25.6442 23.7092 25.5857 23.5987 25.5532C23.4687 25.5142 23.3518 25.5467 23.2348 25.5922C23.0593 25.6637 22.9098 25.7741 22.7539 25.8846C22.4744 26.0861 22.1885 26.2875 21.9025 26.4825C21.4866 26.762 21.0252 26.8789 20.5313 26.8919C20.2063 26.8984 19.8749 26.8984 19.55 26.8659C18.9196 26.8074 18.4582 27.0869 18.1007 27.5743C18.0553 27.6393 18.0033 27.7043 17.9448 27.7888C17.8993 27.6068 17.9188 27.4443 17.9578 27.2819C18.0618 26.8334 18.3542 26.541 18.7571 26.346C19.238 26.1121 19.7449 26.0796 20.2648 26.1251C21.0317 26.1901 21.7596 26.0666 22.4354 25.6897C22.8449 25.4622 23.2738 25.2867 23.7417 25.2347C23.9302 25.2152 24.1186 25.2087 24.3006 25.2477C24.3981 25.2672 24.489 25.3062 24.5605 25.3777C24.7685 25.5727 24.7295 25.8196 24.4695 25.9431C24.4436 25.9561 24.4176 25.9691 24.3916 25.9756C24.0016 26.0406 23.6897 26.268 23.3713 26.476C23.3518 26.489 23.3323 26.515 23.2868 26.5085Z" fill="#F0DA00"/>
<path id="Vector_18" d="M14.8318 22.8432C15.1437 23.2526 15.5857 23.4151 16.0666 23.4996C16.7619 23.6295 17.4053 23.4411 18.0422 23.2071C18.3541 23.0901 18.6661 22.9537 18.965 22.8042C19.017 22.7782 19.0625 22.7717 19.121 22.7847C19.7644 22.9407 20.4078 22.9667 21.0511 22.7912C21.0706 22.7912 21.0966 22.7912 21.1291 22.7912C21.1161 22.8497 21.0641 22.8627 21.0316 22.8887C20.2258 23.4151 19.3485 23.7725 18.4256 24.013C17.8732 24.1559 17.3143 24.2469 16.7489 24.2014C16.0471 24.1429 15.4557 23.8765 15.0268 23.2981C14.9293 23.1681 14.8578 23.0252 14.8188 22.8692C14.8123 22.8432 14.8188 22.8367 14.8448 22.8432H14.8318Z" fill="#F0DA00"/>
<path id="Vector_19" d="M10.1007 29.017C10.1917 28.8936 10.3152 28.8416 10.4321 28.7896C10.7246 28.6726 11.0235 28.6596 11.329 28.6986C11.8034 28.7571 12.2648 28.8546 12.7067 29.0495C13.2006 29.2705 13.5581 29.6344 13.7985 30.1153C13.8375 30.1933 13.818 30.2193 13.7465 30.2453C13.2071 30.4533 12.6612 30.4403 12.1153 30.2778C11.8619 30.2063 11.6149 30.1218 11.3875 29.9919C11.134 29.8489 10.9326 29.6539 10.7766 29.407C10.6271 29.16 10.4256 28.991 10.1007 29.0105V29.017Z" fill="#F0DA00"/>
<path id="Vector_20" d="M17.9123 29.0235C17.6588 29.004 17.4509 29.1015 17.3339 29.303C16.931 29.9919 16.2681 30.2258 15.5467 30.3688C15.1113 30.4533 14.6954 30.4078 14.2795 30.2583C14.195 30.2258 14.182 30.1998 14.2275 30.1153C14.5459 29.4655 15.0788 29.082 15.7612 28.8936C16.1186 28.7961 16.4826 28.7116 16.853 28.6921C17.2104 28.6726 17.5549 28.7181 17.8538 28.9456C17.8798 28.9651 17.9058 28.978 17.9123 29.0235Z" fill="#F0DA00"/>
<path id="Vector_21" d="M14.104 29.8489C14.0715 29.6085 14.117 29.3875 14.2015 29.173C14.5199 28.3607 15.0853 27.7758 15.9041 27.4834C16.4955 27.2689 17.0479 27.4509 17.5353 27.8213C17.5808 27.8603 17.5873 27.8993 17.5808 27.9513C17.5418 28.1462 17.4054 28.2697 17.2494 28.3672C17.0089 28.5102 16.7425 28.5687 16.476 28.6077C16.0991 28.6661 15.7287 28.7311 15.3777 28.8741C14.9098 29.0626 14.5459 29.3875 14.2015 29.7449C14.169 29.7774 14.143 29.8164 14.1105 29.8489H14.104Z" fill="#F0DA00"/>
<path id="Vector_22" d="M13.9415 29.8424C13.8375 29.7384 13.7401 29.654 13.6491 29.563C13.1552 29.0496 12.5443 28.7571 11.8489 28.6532C11.524 28.6012 11.1925 28.5687 10.8871 28.4257C10.7116 28.3412 10.5622 28.2372 10.4777 28.0618C10.4062 27.9123 10.4192 27.8733 10.5492 27.7758C11.212 27.2884 11.9789 27.2754 12.6483 27.7433C13.1877 28.1138 13.6166 28.5817 13.831 29.212C13.9025 29.4135 13.948 29.6215 13.935 29.8489L13.9415 29.8424Z" fill="#F0DA00"/>
<path id="Vector_23" d="M11.407 25.0333C11.3615 24.9553 11.3355 24.9033 11.3095 24.8578C11.017 24.3184 10.5556 24.0195 9.95775 23.922C9.46384 23.8375 8.96343 23.818 8.47603 23.7335C7.95612 23.6426 7.48821 23.4541 7.13078 23.0512C7.03979 22.9472 6.95531 22.8302 6.90332 22.7002C6.92282 22.6807 6.93581 22.6872 6.95531 22.7002C7.49471 22.9602 8.0601 22.9927 8.64499 22.9082C8.96343 22.8627 9.27538 22.8107 9.60031 22.8692C9.73029 22.8887 9.86027 22.9212 9.97724 22.9862C10.6206 23.3501 11.108 23.8505 11.355 24.5589C11.381 24.6369 11.4005 24.7149 11.407 24.7993C11.4135 24.8708 11.407 24.9358 11.407 25.0398V25.0333Z" fill="#F0DA00"/>
<path id="Vector_24" d="M10.5816 29.8814C10.1852 29.6864 9.79526 29.5564 9.39233 29.485C9.0284 29.42 8.66447 29.433 8.29404 29.407C7.69615 29.3615 7.11776 29.2575 6.57836 28.9845C6.28591 28.8351 6.03246 28.6401 5.8115 28.3997C5.51256 28.0617 5.22011 27.7173 4.86918 27.4248C4.69371 27.2754 4.49875 27.1584 4.2323 27.1259C4.44676 27.0349 4.64822 27.0414 4.84968 27.0804C5.23961 27.1584 5.56455 27.3664 5.85699 27.6198C6.04546 27.7888 6.22093 27.9772 6.41589 28.1397C6.8773 28.5231 7.4232 28.7051 7.99509 28.8221C8.4955 28.9261 9.00241 28.978 9.49631 29.1275C9.83425 29.225 10.1462 29.3745 10.3866 29.6409C10.4516 29.7124 10.5101 29.7839 10.5751 29.8944L10.5816 29.8814Z" fill="#F0DA00"/>
<path id="Vector_25" d="M23.7612 27.1194C23.4557 27.1584 23.2218 27.3404 23.0073 27.5353C22.7799 27.7433 22.5654 27.9642 22.3705 28.2047C21.9025 28.7896 21.2917 29.121 20.5703 29.277C20.1609 29.368 19.7449 29.407 19.329 29.4135C18.7181 29.42 18.1332 29.55 17.5744 29.8099C17.5549 29.8229 17.5289 29.8294 17.5094 29.8359C17.5094 29.8359 17.4964 29.8359 17.4899 29.8359C17.5224 29.7254 17.6653 29.563 17.8343 29.446C18.1527 29.212 18.5232 29.1015 18.9001 29.0236C19.433 28.9131 19.9789 28.8481 20.5053 28.6921C21.0447 28.5296 21.5191 28.2632 21.909 27.8473C22.234 27.5028 22.6044 27.2234 23.0723 27.0869C23.2803 27.0284 23.4882 27.0154 23.6962 27.0739C23.7222 27.0804 23.7482 27.0869 23.7677 27.1129L23.7612 27.1194Z" fill="#F0DA00"/>
<path id="Vector_26" d="M14.013 29.0431C13.9545 28.9066 13.9025 28.7896 13.844 28.6726C13.7205 28.4322 13.5516 28.2307 13.3371 28.0683C13.2006 27.9643 13.0642 27.8603 12.9537 27.7303C12.8107 27.5614 12.8302 27.4444 13.0187 27.3339C13.6815 26.9505 14.3379 26.9505 15.0008 27.3339C15.1893 27.4444 15.2088 27.5679 15.0658 27.7303C14.9618 27.8473 14.8448 27.9513 14.7213 28.0423C14.3964 28.2827 14.1819 28.5947 14.0455 28.9716C14.0455 28.9911 14.0325 29.0041 14.0195 29.0431H14.013Z" fill="#F0DA00"/>
<path id="Vector_27" d="M14.0065 32C13.935 32.013 13.922 31.9545 13.9025 31.9155C13.6621 31.4606 13.3046 31.1552 12.7977 31.0382C12.7003 31.0122 12.5963 30.9927 12.4988 30.9992C12.4078 30.9992 12.4143 30.9667 12.4468 30.9017C12.4988 30.8107 12.5768 30.7458 12.6678 30.7003C12.7652 30.6483 12.8692 30.6093 12.9797 30.6093C13.3241 30.6028 13.6361 30.4923 13.9285 30.3168C13.987 30.2778 14.039 30.2778 14.0975 30.3168C14.3899 30.4988 14.7019 30.5963 15.0463 30.6158C15.2608 30.6288 15.4687 30.7003 15.5857 30.9147C15.6182 30.9732 15.6117 30.9992 15.5337 31.0057C14.8903 31.0382 14.4224 31.3566 14.1235 31.922C14.0975 31.9675 14.091 32.0325 14.013 32.013L14.0065 32Z" fill="#F0DA00"/>
<path id="Vector_28" d="M17.9122 28.5946C18.1722 28.5361 18.4321 28.4777 18.6856 28.3932C19.212 28.2177 19.7124 27.9967 20.1348 27.6263C20.3168 27.4703 20.4728 27.2884 20.5897 27.0804C20.6157 27.0349 20.6417 27.0089 20.7002 27.0154C21.0381 27.0414 21.3696 27.0024 21.6685 26.827C21.6685 26.827 21.6815 26.827 21.701 26.827C21.61 27.0284 21.4866 27.1974 21.3501 27.3599C20.8432 27.9448 20.1868 28.2762 19.4459 28.4582C18.9455 28.5816 18.4321 28.6206 17.9122 28.5946Z" fill="#F0DA00"/>
<path id="Vector_29" d="M6.31195 26.7945C6.63039 27.0024 6.96183 27.0349 7.29977 27.0219C7.35176 27.0219 7.39725 27.0089 7.42974 27.0674C7.69619 27.5483 8.11861 27.8538 8.59952 28.0942C9.05444 28.3217 9.52885 28.4711 10.0228 28.5686C10.0423 28.5686 10.0682 28.5816 10.0877 28.5946C9.7628 28.6141 9.43787 28.5946 9.11942 28.5556C8.42406 28.4646 7.76768 28.2567 7.18929 27.8343C6.87734 27.6068 6.61739 27.3339 6.41593 26.9959C6.38994 26.9504 6.36394 26.8984 6.33795 26.853C6.33145 26.84 6.32495 26.827 6.31845 26.788L6.31195 26.7945Z" fill="#F0DA00"/>
<path id="Vector_30" d="M5.74005 23.1357C6.09099 23.2657 6.29245 23.4866 6.39643 23.7986C6.48091 24.0585 6.50041 24.325 6.5459 24.5914C6.62389 25.0268 6.75386 25.4557 6.90983 25.8717C6.94882 25.9886 6.94882 25.9821 6.82535 25.9692C6.63038 25.9432 6.44842 25.8847 6.25995 25.8262C6.12348 25.7807 6.04549 25.6962 5.9935 25.5727C5.88952 25.3258 5.88952 25.0723 5.91552 24.8124C5.93501 24.6044 5.98701 24.3964 6.0195 24.1885C6.07799 23.8116 5.9935 23.4671 5.74005 23.1357Z" fill="#F0DA00"/>
<path id="Vector_31" d="M22.2795 23.1357C21.974 23.5321 21.935 23.948 22.039 24.3964C22.117 24.7409 22.1625 25.0853 22.0715 25.4363C22.0195 25.6442 21.9155 25.7937 21.6946 25.8522C21.5256 25.8977 21.3566 25.9432 21.1812 25.9757C21.0902 25.9886 21.0707 25.9757 21.1032 25.8847C21.2592 25.4622 21.3891 25.0333 21.4671 24.5914C21.5126 24.351 21.5321 24.104 21.5971 23.87C21.6946 23.5256 21.896 23.2787 22.273 23.1422L22.2795 23.1357Z" fill="#F0DA00"/>
<path id="Vector_32" d="M19.5174 20.6206C19.4828 20.6336 19.4481 20.6401 19.4135 20.6401C19.4135 20.6076 19.4459 20.6076 19.4719 20.6011L19.5174 20.6206Z" fill="#FAF5BE"/>
<path id="Vector_33" d="M25.5353 22.2323C25.5353 22.2323 25.4769 22.2583 25.4379 22.2518C25.4444 22.2193 25.4704 22.2193 25.4964 22.2128L25.5418 22.2323H25.5353Z" fill="#F7EC7E"/>
<path id="Vector_34" d="M8.31353 19.3079C8.31353 19.3079 8.35902 19.3209 8.37202 19.3404C8.33953 19.3599 8.31353 19.3534 8.28754 19.3274L8.30703 19.3014L8.31353 19.3079Z" fill="#F8F09B"/>
<path id="Vector_35" d="M19.7319 19.3339C19.7319 19.3339 19.6865 19.3599 19.6605 19.3534C19.6605 19.3209 19.693 19.3209 19.7125 19.3144L19.7319 19.3339Z" fill="#F9F099"/>
<path id="Vector_36" d="M6.11694 19.2559C6.11694 19.2559 6.15594 19.2559 6.16893 19.2299C6.18843 19.2429 6.21443 19.2559 6.19493 19.2754C6.17543 19.2949 6.13644 19.2754 6.11694 19.2559Z" fill="#F2E026"/>
<path id="Vector_37" d="M8.59949 20.6206L8.67747 20.6466C8.67747 20.6466 8.62548 20.6661 8.59949 20.6466V20.6206Z" fill="#F9EF9A"/>
<path id="Vector_38" d="M19.8489 17.9236C19.8489 17.9236 19.7969 17.9496 19.7644 17.9366C19.7709 17.9041 19.8034 17.9041 19.8229 17.8976L19.8489 17.9236Z" fill="#F9F2AD"/>
<path id="Vector_39" d="M2.52963 22.2128C2.52963 22.2128 2.57512 22.2258 2.58812 22.2453C2.55562 22.2648 2.52963 22.2583 2.51013 22.2388L2.52963 22.2128Z" fill="#F7EC7D"/>
<path id="Vector_40" d="M14.8319 22.8432L14.8059 22.8692C14.8059 22.8692 14.7669 22.8172 14.7929 22.7977C14.7994 22.7912 14.8189 22.8237 14.8254 22.8497L14.8319 22.8432Z" fill="#F3E449"/>
<path id="Vector_41" d="M8.20309 17.9041L8.27458 17.9236C8.27458 17.9236 8.27458 17.9561 8.25508 17.9496C8.22908 17.9496 8.20309 17.9496 8.18359 17.9236L8.20959 17.8976L8.20309 17.9041Z" fill="#F9F3AF"/>
<path id="Vector_42" d="M4.55078 14.3168C4.55078 14.3168 4.57028 14.2843 4.57678 14.2648C4.59627 14.2908 4.60927 14.3233 4.58977 14.3428C4.57678 14.3558 4.55728 14.3298 4.55078 14.3103V14.3168Z" fill="#F4E448"/>
<path id="Vector_43" d="M21.857 19.2299C21.857 19.2299 21.8895 19.2559 21.909 19.2559C21.883 19.2754 21.8505 19.2949 21.8245 19.2624C21.818 19.2494 21.8375 19.2364 21.857 19.2234V19.2299Z" fill="#F2DF23"/>
<path id="Vector_44" d="M14.013 6.12182C13.1877 6.12182 12.5183 5.45245 12.5118 4.6271C12.5118 3.80176 13.1812 3.13239 14.0065 3.13239C14.8318 3.13239 15.5012 3.80176 15.5077 4.6271C15.5077 5.45245 14.8383 6.12182 14.013 6.12182Z" fill="#FEFEFE"/>
<path id="Vector_45" d="M17.0804 4.63365L15.7027 4.95859C15.7352 4.73113 15.7417 4.51667 15.7027 4.28271L17.0869 4.61415V4.63365H17.0804Z" fill="#FEFEFE"/>
<path id="Vector_46" d="M15.5207 7.28513L14.5459 6.26482C14.7604 6.18683 14.9553 6.08285 15.1308 5.92688L15.5402 7.26563L15.5207 7.27863V7.28513Z" fill="#FEFEFE"/>
<path id="Vector_47" d="M15.6377 5.1925L16.6385 6.14133C16.606 6.17382 16.58 6.16082 16.5605 6.15432C16.1706 6.03735 15.7872 5.92037 15.3972 5.80339C15.3063 5.7774 15.3063 5.7514 15.3648 5.68641C15.4817 5.54344 15.5662 5.38097 15.6377 5.1925Z" fill="#FEFEFE"/>
<path id="Vector_48" d="M15.2933 3.48333L16.6905 3.06091L15.6377 4.05523C15.5532 3.84727 15.4492 3.6588 15.2933 3.48333Z" fill="#FEFEFE"/>
<path id="Vector_49" d="M13.4541 2.99593C13.2396 3.08041 13.0512 3.17789 12.8757 3.33386L12.4598 1.99511L12.4793 1.98212L13.4476 2.99593H13.4541Z" fill="#FEFEFE"/>
<path id="Vector_50" d="M10.9131 4.62712L12.3233 4.28918C12.2973 4.49715 12.2908 4.69861 12.3168 4.90007C12.3298 4.97806 12.2648 4.93906 12.2388 4.93256C11.8619 4.84808 11.4915 4.7571 11.1145 4.67261C11.0561 4.65962 11.0041 4.64662 10.9131 4.62712Z" fill="#FEFEFE"/>
<path id="Vector_51" d="M11.368 6.14785L12.3818 5.18604C12.4598 5.394 12.5638 5.58246 12.7132 5.75793L11.381 6.17385L11.368 6.14785Z" fill="#FEFEFE"/>
<path id="Vector_52" d="M12.3883 4.06176L11.3745 3.10644V3.08044L12.7133 3.49637C12.5703 3.67183 12.4598 3.8473 12.3883 4.06176Z" fill="#FEFEFE"/>
<path id="Vector_53" d="M12.4533 7.25263L12.8757 5.91388C13.0447 6.05035 13.2202 6.16083 13.4411 6.23882L12.4793 7.25913L12.4598 7.24613L12.4533 7.25263Z" fill="#FEFEFE"/>
<path id="Vector_54" d="M14.338 2.93744C14.1105 2.89844 13.9025 2.89844 13.6816 2.93744L13.9935 1.57269H14.0195L14.338 2.93744Z" fill="#FEFEFE"/>
<path id="Vector_55" d="M14.3119 6.3168L13.987 7.68804H13.9675L13.662 6.3103C13.883 6.3363 14.091 6.36229 14.3184 6.3103L14.3119 6.3168Z" fill="#FEFEFE"/>
<path id="Vector_56" d="M15.5337 1.97564L15.1243 3.31439C14.9553 3.17792 14.7798 3.07394 14.5654 2.99595L15.5142 1.96265L15.5337 1.97564Z" fill="#FEFEFE"/>
<path id="Vector_57" d="M19.706 23.8051C18.9976 24.13 18.2502 24.3185 17.4899 24.4549C17.4119 24.4679 17.3469 24.4939 17.2949 24.5589C17.1324 24.7409 16.931 24.8579 16.697 24.8969C16.1381 24.9813 15.6767 24.7864 15.2998 24.377C14.9553 24.0065 14.7799 23.5386 14.6434 23.0577C14.4744 22.4728 14.3964 21.8749 14.3445 21.2705C14.3055 20.8546 14.2925 20.4387 14.351 20.0228C14.4289 19.4509 14.6239 18.9115 14.8709 18.3916C15.1308 17.8457 15.3648 17.2933 15.4752 16.6889C15.5792 16.1105 15.4687 15.6036 15.0008 15.2072C14.8644 15.0902 14.7084 14.9992 14.5524 14.9082C14.4094 14.8238 14.286 14.7198 14.221 14.5573C14.1885 14.4663 14.1755 14.3688 14.26 14.2973C14.3445 14.2324 14.4289 14.2714 14.5069 14.3233C14.6109 14.3948 14.6824 14.4988 14.7539 14.6028C14.9099 14.8108 15.0723 15.0187 15.2803 15.1812C15.6897 15.4931 16.1641 15.5256 16.6515 15.4801C16.879 15.4606 17.0739 15.3696 17.2169 15.1877C17.4314 14.9082 17.4834 14.5833 17.4899 14.2389C17.4314 14.2649 17.4054 14.3038 17.3729 14.3363C16.918 14.7978 16.3396 14.8757 15.7807 14.5638C15.6117 14.4728 15.4558 14.3558 15.3063 14.2389C15.0593 14.0439 14.8254 13.8424 14.5589 13.6735C14.104 13.381 13.6361 13.368 13.1617 13.6215C13.0902 13.6605 13.0187 13.6995 12.9407 13.745C12.8887 13.55 12.8822 13.3615 12.9277 13.1666C12.9732 12.9716 13.0967 12.8546 13.2917 12.8156C13.4216 12.7896 13.5581 12.7896 13.6881 12.8156C14.156 12.8936 14.5524 13.1211 14.9293 13.394C15.5337 13.8294 16.2226 13.9659 16.931 13.7904C17.5419 13.6345 17.8863 13.1536 18.0748 12.5687C18.1203 12.4322 18.1073 12.2957 18.0423 12.1528C17.8798 12.2502 17.7173 12.3347 17.5484 12.4127C16.853 12.7506 16.1706 12.7376 15.4947 12.3477C15.1438 12.1463 14.8189 11.9058 14.5134 11.6263C14.364 11.4899 14.1885 11.4184 13.987 11.3989C13.5646 11.3599 13.1812 11.4704 12.8237 11.6653C12.6353 11.7693 12.4598 11.8928 12.3688 12.0878C12.0829 12.7246 12.0699 13.3615 12.3818 13.9919C12.4338 14.0959 12.4078 14.1024 12.3103 14.1154C11.9594 14.1674 11.641 14.2909 11.3615 14.5183C11.0951 14.7328 10.9261 15.0122 10.8546 15.3566C11.1276 15.2397 11.3875 15.1682 11.667 15.1292C12.2778 15.0447 12.7913 15.3761 12.9472 15.9805C12.9862 16.1235 13.0122 16.273 13.0317 16.416C13.0837 16.7669 13.2657 16.9943 13.6166 17.0788C13.7206 17.1048 13.8181 17.1438 13.909 17.2023C14.117 17.3323 14.195 17.5207 14.143 17.7612C14.1105 17.9107 14.052 18.0406 13.974 18.1706C13.4931 18.9765 13.0122 19.7888 12.5378 20.5947C12.2778 21.0366 11.9789 21.4525 11.7774 21.9269C11.4915 22.5768 11.342 23.2592 11.4525 23.9675C11.6345 25.1893 12.4143 26.3461 13.8895 26.723C14.9618 26.996 16.0211 26.931 17.0545 26.5735C18.3347 26.1381 19.3355 25.3518 19.9789 24.1495C20.0959 23.935 20.1934 23.7141 20.2778 23.4606C20.0829 23.6036 19.8944 23.7076 19.693 23.7986L19.706 23.8051ZM14.104 15.7466C13.974 15.6946 13.9025 15.5906 13.87 15.4606C13.8181 15.2592 13.7336 15.0837 13.5386 14.9797C13.8765 14.9732 14.169 15.0707 14.4094 15.3047C14.5329 15.4216 14.5654 15.5516 14.4939 15.6556C14.4224 15.7661 14.2405 15.8051 14.104 15.7531V15.7466Z" fill="#F0DA00"/>
<path id="Vector_58" d="M8.24856 17.9496L8.26806 17.9236L8.32005 17.9561C8.32005 17.9561 8.26806 17.9691 8.24207 17.9496H8.24856Z" fill="#F4E549"/>
</g>
<defs>
<clipPath id="clip0_204_4208">
<rect width="27.9838" height="32" fill="white" transform="translate(0.00811768)"/>
</clipPath>
</defs>
</svg>
