<svg width="40" height="40" viewBox="0 0 40 40" fill="none" xmlns="http://www.w3.org/2000/svg">
<g id="Pin-New">
<g id="Ellipse 26">
<path d="M35 15C35 17.052 34.1279 21.0842 32.5 23.75C30.0989 27.6821 26.35 30.3994 23.75 33.75C20.9961 37.2989 20 40 20 40C20 40 19.0039 37.2989 16.25 33.75C13.65 30.3994 9.90111 27.6821 7.5 23.75C5.87211 21.0842 5 17.052 5 15C5 6.71573 11.7157 0 20 0C28.2843 0 35 6.71573 35 15Z" fill="#DC3545"/>
<path d="M20.4005 37.9716C20.2445 38.266 20.1115 38.5307 20 38.7618C19.8885 38.5307 19.7555 38.266 19.5995 37.9716C18.9944 36.8305 18.0417 35.2433 16.645 33.4435C15.5574 32.0419 14.2705 30.7471 12.9881 29.4569C12.7102 29.1773 12.4325 28.8978 12.157 28.6176C10.5986 27.0319 9.09561 25.4036 7.92673 23.4894C7.14641 22.2116 6.53706 20.5868 6.123 19.0173C5.70853 17.4462 5.5 15.9698 5.5 15C5.5 6.99187 11.9919 0.5 20 0.5C28.0081 0.5 34.5 6.99187 34.5 15C34.5 15.9698 34.2915 17.4462 33.877 19.0173C33.4629 20.5868 32.8536 22.2116 32.0733 23.4894C30.9044 25.4036 29.4014 27.0319 27.843 28.6176C27.5676 28.8978 27.2898 29.1772 27.0119 29.4569C25.7296 30.7471 24.4426 32.0419 23.355 33.4435C21.9583 35.2433 21.0056 36.8305 20.4005 37.9716Z" stroke="#212529" stroke-opacity="0.34"/>
</g>
<circle id="Ellipse 44" cx="20" cy="15" r="6.25" fill="white"/>
</g>
</svg>
