<svg width="24" height="24" viewBox="0 0 24 24" fill="none" xmlns="http://www.w3.org/2000/svg">
<path d="M12 2.625C17.1777 2.625 21.375 6.82233 21.375 12C21.375 17.1777 17.1777 21.375 12 21.375C6.82233 21.375 2.625 17.1777 2.625 12C2.625 6.82233 6.82233 2.625 12 2.625Z" fill="black" stroke="white" stroke-width="1.25"/>
<g clip-path="url(#clip0_33_24059)">
<path d="M15.5156 7.05859H8.48438C8.24147 7.05859 8.04492 7.27153 8.04492 7.53467V8.51855C8.04492 8.7817 8.24147 8.99463 8.48438 8.99463H15.5156C15.7585 8.99463 15.9551 8.7817 15.9551 8.51855V7.53467C15.9551 7.27153 15.7585 7.05859 15.5156 7.05859Z" fill="white"/>
<path d="M8.04492 18.0718V19.0239C8.04492 19.2871 8.24147 19.5 8.48438 19.5H15.5156C15.7585 19.5 15.9551 19.2871 15.9551 19.0239V18.0718C15.9551 17.8086 15.7585 17.5957 15.5156 17.5957H8.48438C8.24147 17.5957 8.04492 17.8086 8.04492 18.0718Z" fill="white"/>
<path d="M8.92383 9.94678V16.6436H15.0762V9.94678H8.92383ZM11.5605 15.2153C11.5605 15.4785 11.364 15.6914 11.1211 15.6914C10.8782 15.6914 10.6816 15.4785 10.6816 15.2153V11.375C10.6816 11.1119 10.8782 10.8989 11.1211 10.8989C11.364 10.8989 11.5605 11.1119 11.5605 11.375V15.2153ZM13.3184 15.2153C13.3184 15.4785 13.1218 15.6914 12.8789 15.6914C12.636 15.6914 12.4395 15.4785 12.4395 15.2153V11.375C12.4395 11.1119 12.636 10.8989 12.8789 10.8989C13.1218 10.8989 13.3184 11.1119 13.3184 11.375V15.2153Z" fill="white"/>
<path d="M7.16602 11.375V15.2153C7.16602 15.4785 7.36257 15.6914 7.60547 15.6914H8.04492V10.8989H7.60547C7.36257 10.8989 7.16602 11.1119 7.16602 11.375Z" fill="white"/>
<path d="M16.3945 10.8989H15.9551V15.6914H16.3945C16.6374 15.6914 16.834 15.4785 16.834 15.2153V11.375C16.834 11.1119 16.6374 10.8989 16.3945 10.8989Z" fill="white"/>
<path d="M12.4395 4.23712V3.72607C12.4395 3.46293 12.2429 3.25 12 3.25C11.7571 3.25 11.5606 3.46293 11.5606 3.72607V4.23712C10.5296 4.39921 9.6676 5.12177 9.23242 6.10645H14.7677C14.3325 5.12177 13.4705 4.39921 12.4395 4.23712Z" fill="white"/>
</g>
<defs>
<clipPath id="clip0_33_24059">
<rect width="15" height="16.25" fill="white" transform="translate(4.5 3.25)"/>
</clipPath>
</defs>
</svg>
