<svg width="24" height="24" viewBox="0 0 24 24" fill="none" xmlns="http://www.w3.org/2000/svg">
<path d="M12 2.625C17.1777 2.625 21.375 6.82233 21.375 12C21.375 17.1777 17.1777 21.375 12 21.375C6.82233 21.375 2.625 17.1777 2.625 12C2.625 6.82233 6.82233 2.625 12 2.625Z" fill="#757575" stroke="white" stroke-width="1.25"/>
<g clip-path="url(#clip0_33_24062)">
<path d="M15.5156 7.05859H8.48438C8.24147 7.05859 8.04492 7.27153 8.04492 7.53467V8.51855C8.04492 8.7817 8.24147 8.99463 8.48438 8.99463H15.5156C15.7585 8.99463 15.9551 8.7817 15.9551 8.51855V7.53467C15.9551 7.27153 15.7585 7.05859 15.5156 7.05859Z" fill="white"/>
<path d="M8.04492 18.0718V19.0239C8.04492 19.2871 8.24147 19.5 8.48438 19.5H15.5156C15.7585 19.5 15.9551 19.2871 15.9551 19.0239V18.0718C15.9551 17.8086 15.7585 17.5957 15.5156 17.5957H8.48438C8.24147 17.5957 8.04492 17.8086 8.04492 18.0718Z" fill="white"/>
<path d="M8.92383 9.94678V16.6436H15.0762V9.94678H8.92383Z" fill="white"/>
<path d="M7.16602 11.375V15.2153C7.16602 15.4785 7.36257 15.6914 7.60547 15.6914H8.04492V10.8989H7.60547C7.36257 10.8989 7.16602 11.1119 7.16602 11.375Z" fill="white"/>
<path d="M16.3945 10.8989H15.9551V15.6914H16.3945C16.6374 15.6914 16.834 15.4785 16.834 15.2153V11.375C16.834 11.1119 16.6374 10.8989 16.3945 10.8989Z" fill="white"/>
<path d="M12.4395 4.23712V3.72607C12.4395 3.46293 12.2429 3.25 12 3.25C11.7571 3.25 11.5606 3.46293 11.5606 3.72607V4.23712C10.5296 4.39921 9.6676 5.12177 9.23242 6.10645H14.7677C14.3325 5.12177 13.4705 4.39921 12.4395 4.23712Z" fill="white"/>
<path d="M12.9433 13.2429L14.3617 11.8245C14.5461 11.6543 14.5461 11.3706 14.3617 11.2004L14.0496 10.8883C13.8794 10.7039 13.5957 10.7039 13.4255 10.8883L12.0071 12.3067L10.5745 10.8883C10.4043 10.7039 10.1206 10.7039 9.95035 10.8883L9.6383 11.2004C9.4539 11.3706 9.4539 11.6543 9.6383 11.8245L11.0567 13.2429L9.6383 14.6755C9.4539 14.8457 9.4539 15.1294 9.6383 15.2996L9.95035 15.6117C10.1206 15.7961 10.4043 15.7961 10.5745 15.6117L12.0071 14.1933L13.4255 15.6117C13.5957 15.7961 13.8794 15.7961 14.0496 15.6117L14.3617 15.2996C14.5461 15.1294 14.5461 14.8457 14.3617 14.6755L12.9433 13.2429Z" fill="#B00020"/>
</g>
<defs>
<clipPath id="clip0_33_24062">
<rect width="15" height="16.25" fill="white" transform="translate(4.5 3.25)"/>
</clipPath>
</defs>
</svg>
